<svg xmlns="http://www.w3.org/2000/svg" xmlns:xlink="http://www.w3.org/1999/xlink" 
viewBox="0 0 46.45 27.26">
<defs>
    <style>
    .cls-1{fill:none;}.cls-2{fill:#a5b7c6;}.cls-3{fill:url(#Новый_образец_узора_3);}.cls-4{fill:#a7c8fd;}.cls-5{fill:#94b1c6;}
    </style>
    <pattern id="Новый_образец_узора_3" data-name="Новый образец узора 3" width="314.98" height="314.98" patternUnits="userSpaceOnUse" viewBox="0 0 314.98 314.98">
    <rect class="cls-1" width="314.98" height="314.98"/><rect class="cls-2" width="314.98" height="314.98"/>
    </pattern>
</defs>
<g id="Layer_2" data-name="Layer 2">
<g id="Layer_4" data-name="Layer 4">
<path class="cls-3" d="M22.46,13.09a5.63,5.63,0,0,1,9.66,4.17A8.54,8.54,0,0,0,28,13.72,9.1,9.1,0,0,0,22.46,13.09Z"/>
<path class="cls-4" d="M46.43,17.51c-.33-4.26-3.9-6.84-7.93-6.89a10,10,0,0,0-19-5l0,.07a5.69,5.69,0,0,0-.35.7A10.66,10.66,0,0,0,6,12.49a7.16,7.16,0,0,0-.8-.05c-3.09,0-5.44,3.18-5.22,6.08.25,3.25,3,5.22,6.09,5.22a4.53,4.53,0,0,0,1.65-.32,10.76,10.76,0,0,0,9.07,3.78l2.67-.56a10.69,10.69,0,0,0,3-1.61A8.5,8.5,0,0,0,34,23.59a8.55,8.55,0,0,0,5.58,2C43.62,25.56,46.72,21.34,46.43,17.51Z"/>
<path class="cls-5" d="M26.11,20.14A4.37,4.37,0,0,1,18,20a6.6,6.6,0,0,0,4,1.35A7,7,0,0,0,26.11,20.14Z"/><path class="cls-5" d="M39.81,22.78a7.51,7.51,0,0,1-6.73-4.3,7.5,7.5,0,0,1-6.88,4.69,7.37,7.37,0,0,1-4.62-1.66,7.33,7.33,0,0,1-13-1.71,7.24,7.24,0,0,1-8.52-2,5.48,5.48,0,0,0,0,.7c.25,3.25,3,5.22,6.09,5.22a4.53,4.53,0,0,0,1.65-.32,10.76,10.76,0,0,0,9.07,3.78l2.67-.56a10.69,10.69,0,0,0,3-1.61A8.5,8.5,0,0,0,34,23.59a8.55,8.55,0,0,0,5.58,2c3.66,0,6.52-3.37,6.87-6.82A7.5,7.5,0,0,1,39.81,22.78Z"/>
</g>
</g>
</svg>