<svg xmlns="http://www.w3.org/2000/svg" xmlns:xlink="http://www.w3.org/1999/xlink" viewBox="0 0 391.68 346.62"><defs><style>.cls-1{fill:none;}.cls-2{fill:#f9fbfc;}.cls-3{fill:#a5b7c6;}.cls-4{isolation:isolate;}.cls-5{fill:#29467a;}.cls-6{fill:#375c93;}.cls-7{fill:#a7c8fd;}.cls-22,.cls-8{fill:#94b1c6;}.cls-8{opacity:0.6;mix-blend-mode:multiply;}.cls-9{fill:#7aabf9;}.cls-10{fill:#6498fc;}.cls-11{fill:#699efc;}.cls-12{fill:#5d93fc;}.cls-13{fill:url(#Новый_образец_узора_1);}.cls-14{fill:#fff;}.cls-15{fill:#508ac8;}.cls-16{fill:#62a0e6;}.cls-17{fill:#1d3360;}.cls-18{fill:#fffffc;}.cls-19{fill:#3762c8;}.cls-20{fill:#335ab9;}.cls-21{fill:url(#Новый_образец_узора_3);}</style><pattern id="Новый_образец_узора_1" data-name="Новый образец узора 1" width="314.98" height="314.98" patternUnits="userSpaceOnUse" viewBox="0 0 314.98 314.98"><rect class="cls-1" width="314.98" height="314.98"/><rect class="cls-2" width="314.98" height="314.98"/></pattern><pattern id="Новый_образец_узора_3" data-name="Новый образец узора 3" width="314.98" height="314.98" patternUnits="userSpaceOnUse" viewBox="0 0 314.98 314.98"><rect class="cls-1" width="314.98" height="314.98"/><rect class="cls-3" width="314.98" height="314.98"/></pattern></defs><g class="cls-4"><g id="Layer_2" data-name="Layer 2"><g id="Layer_4" data-name="Layer 4"><path class="cls-5" d="M314.54,154.83a14.94,14.94,0,0,1-10.32,12.95c-2.34.71-4.89.83-7,2-3.13,1.77-4.62,5.37-6.42,8.49-3.28,5.68-8.44,10.47-14.73,12.31s-13.71.36-18.12-4.49c-2.28,7.29-11.52,11.63-19.05,10.39s-13.77-7.2-16.63-14.28a14.81,14.81,0,0,1-28.66-5.94c-2.87,3.29-9.35,1.46-10.08-2.84a27,27,0,0,1-18,14.6c-5.48,1.27-11.56.68-16.21-2.49s-7.52-9.12-6.23-14.6c-3.41,3.81-7.07,7.8-12,9.25s-11.29-.87-12.28-5.89a20.29,20.29,0,0,1-29.65-23c1.3-4.72,4.26-8.82,7.68-12.32,10.56-10.81,25.33-16.4,40-20.1C197.7,103.55,264.16,117.36,314.54,154.83Z"/><path class="cls-5" d="M234.86,343.71c-3.62-2.1-5.62-6.11-7.33-9.93-4.37-9.76-10.95-19.58-11.83-30.24q-.81-9.81-.79-19.68a38,38,0,0,1,1.21-11.05,41.58,41.58,0,0,1,3.4-7.4q5.56-10.23,11.11-20.46c3-5.45,5.92-10.91,8.34-16.61a62.34,62.34,0,0,1,4.24-9.06,64,64,0,0,1,5.19-6.66,87.52,87.52,0,0,0,19.07-43.52c-.57-.06-.91-.19-1.49-.25a52.26,52.26,0,0,1-6,21.77,104.73,104.73,0,0,1-12.78,18.78q-3.23,3.93-6.64,7.69c1.23-5.26,3.92-10,6-15.05,4.52-11.13,5.73-23.28,6.91-35.24.32-3.33.65-6.65,1-10l-2,.13a227.29,227.29,0,0,1-3.19,24.41c-3.67,17.88-11.55,34.57-19.36,51.06-.21.45-.6,1-1.07.84a.93.93,0,0,1-.5-.53,6.51,6.51,0,0,1-.29-3.4l1.29-13.63a61.16,61.16,0,0,1,1.12-8.1,81.87,81.87,0,0,1,3.1-9.39,134.32,134.32,0,0,0,7.09-32.94c-.69.26-.81.71-1.49.42a196.35,196.35,0,0,1-9.7,37c-.2.52-.52,1.14-1.08,1.15s-1-.87-1-1.56a238.52,238.52,0,0,1-1-35.66c-1.08.36-1.73.93-2.86.88.61,12.22,1.23,24.46,2.52,36.63a63.81,63.81,0,0,1-.14,14c-1.47,10.89-3,17.41-7,26.12-.91,2-2.44,4.35-4.61,4-2-.3-2.85-2.57-3.28-4.51-1.66-7.38-2.18-15-2.7-22.52-1-14.71-2-29.54.1-44.13.78-5.46,2-10.91,1.67-16.41-.52.08-1-.51-1.51-.49-3.32.08-3.61.15-6.94.23-.16,8.91-.44,18.07-1,27-.48,7.32-2.71,3.69-4,2.56-.25-.22-.86-1-1.08-1.24-6-7-8.09-16.31-10-25.27-.79.28-1.81.13-2.6.41,2.16,10.45,4.68,21.42,10.28,30.5,1.81,2.94,4,5.71,5.1,9a31.74,31.74,0,0,1,1.23,9.48,44.34,44.34,0,0,1-.67,11.34,4.53,4.53,0,0,1-1.52,2.81c-.89.62-1.87,0-2.72-.65-7.33-5.9-11.22-18.62-12.93-29.2s-1.75-21.34-3-32c-1.47-.06-2,1.92-2,3.39a247.61,247.61,0,0,0,4.12,44.23c-4.38-5.39-8.8-10.85-11.67-17.18-5.76-12.74-4.57-27.48-2-41.23-.66-.07-1.24-.28-1.9-.35q-1,10.2-2.61,20.32c-.05.25-.11.54-.34.66s-.65-.07-.91-.31c-7.84-7.11-12-17.33-17.83-26.14-1.17.62-2.37.9-2,2.17,0,0,8.58,13.81,12.73,19.93,7.1,10.45,10.22,23.06,15.93,34.34,5.59,11,13.57,20.65,20.41,31a26.81,26.81,0,0,1,3.21,5.93,29,29,0,0,1,1.17,8.56q.87,24.86.76,49.74c-.07,15.15-8.28,29.46-17.75,41.27-.89-.28-2.1,1.26-1.42,1.91a2,2,0,0,0,1.11.43,44.45,44.45,0,0,0,16.5-.31,6.24,6.24,0,0,1,2.31-.21,6.53,6.53,0,0,1,2.15,1,17.26,17.26,0,0,0,9.91,2.34,47.77,47.77,0,0,0,6.46-1.33,43.07,43.07,0,0,1,15.1-.67C231.68,344.78,233.66,344.81,234.86,343.71Z"/><path class="cls-6" d="M193.11,194.38c1.81,2.94,4,5.71,5.1,9a31.74,31.74,0,0,1,1.23,9.48,44.34,44.34,0,0,1-.67,11.34,13.91,13.91,0,0,1-1.25,2.57c-.18.44-.46.35-.1.92a1.35,1.35,0,0,0,1.35.49,2.64,2.64,0,0,0,1.65-1.73,13.52,13.52,0,0,0,.7-4.66c0-1.6.09-3.2.13-4.8.1-4.24.16-8.56-1-12.66s-3.59-8-7.4-9.91"/><path class="cls-6" d="M177.94,341.43c9.47-11.81,17.68-26.12,17.75-41.27q.12-24.87-.76-49.74a29,29,0,0,0-1.17-8.56,26.81,26.81,0,0,0-3.21-5.93c3.09,1.29,5,4.15,6.17,7.3a34.74,34.74,0,0,1,1.6,9.89c1.09,17.95,1.25,35.94.8,53.92-.1,4-.25,8.11-1.6,11.89a37.67,37.67,0,0,1-5.42,9.2c-4.12,5.66-8.53,11.43-14.66,14.81C177,342.7,177.62,341.83,177.94,341.43Z"/><path class="cls-7" d="M170.85,31.79A13.23,13.23,0,0,0,151.78,44.7c-10.82-4.52-24.58-.34-31,9.44-3,4.52-4.26,11.06-.62,15.08-2.82.65-5.69,1.83-7.4,4.17s-1.78,6,.48,7.83c-4.78,1.17-10.43,2.41-14.29,5.47s-6.3,8.48-4.4,13c-5.89,1.71-11.26,6.1-12.86,12s1.51,13.1,7.36,14.94c-3,4.83-5,10.67-3.77,16.22s6.63,10.38,12.26,9.53c.35,5.61,5.76,9.9,11,11.93,3,1.19,6.49,1.88,9.57.77s5.5-4.5,4.57-7.63a7.12,7.12,0,0,0,4.66,4.69,13.77,13.77,0,0,0,6.81.3c5.54-.94,11.07-4,13.25-9.22,4.5,8.62,14.42,15.93,24.13,16.4a20.24,20.24,0,0,0,12.14-2.94,13.06,13.06,0,0,0,6.06-10.57c.5,3.41,3.28,7,6,9,3,2.26,6.8,3.15,10.52,3.71,4.26.64,8.66.93,12.83-.18s8.08-3.8,9.77-7.77c-1.43,4.62-2.71,10.43-.85,14.88a14.69,14.69,0,0,0,10.65,8.92c4.76.8,10.06-1.62,12.05-6a18.22,18.22,0,0,0,30.19-1.37c1.76-2.9,2.49-7.1,0-9.37,1.42,1.26,2.67,1.18,4.56,1.38,3.33.35,6.79.69,9.94-.44s5.88-4.19,5.47-7.51a20.17,20.17,0,0,0,13.8.69,6.67,6.67,0,0,0,3.81-2.47c.82-1.31.62-3.35-.75-4.06,3.85-1.23,4.58-5.52,6-9.29.93-2.43,1.81-5,1.32-7.6s-2.83-5-5.41-4.55c5.42-3.08,3.27-11.43-.78-16.17s-10.48-6.58-16.59-7.83c6.24-.65,12.87-2.15,17.09-6.8s4.31-13.3-1.21-16.28a18.4,18.4,0,0,0-17.38-30.89c-2.24-4.54-8.27-7.63-13.1-9.13s-9.95-1.66-15-1.82c-1.6-9.32-12.08-16-21.22-13.63-5.69,1.51-10.18,5.79-14.19,10.1-2.43-4.9-6.22-9.38-11.33-11.35s-11.61-.81-14.84,3.61c-.63.85-1.27,1.9-2.32,2a3.5,3.5,0,0,1-2.25-.91,33,33,0,0,0-35-1.39c-.34.2-.78.4-1.07.14S170.78,31.41,170.85,31.79Z"/><path class="cls-6" d="M176.12,49.53,169.9,52a8.08,8.08,0,0,0-1.54.74,6.57,6.57,0,0,0-2.4,4,10.09,10.09,0,0,0-7.24-.1,16.08,16.08,0,0,0-6.1,4.08C150,57.56,145,57.15,141,58.14a17.65,17.65,0,0,0-9,5.37,13.47,13.47,0,0,0-3.36,9.84,8.86,8.86,0,0,1,6.15.61,15.91,15.91,0,0,1,5,3.86c.24.27.54.56.89.5s.48-.32.65-.57a14.33,14.33,0,0,1,12.3-6,18.75,18.75,0,0,1,12.64,5.91c0-3.18,2.12-6.06,4.76-7.84a29.6,29.6,0,0,1,8.84-3.48l5.47-1.5A20.78,20.78,0,0,1,183.62,55a13.72,13.72,0,0,1,4.27-8.89c.32-.29.68-.66.56-1.07a1,1,0,0,0-.59-.53c-1.72-.77-3.73-.3-5.5.32a33.55,33.55,0,0,0-4.22,1.82C177,47.23,175.65,48.28,176.12,49.53Z"/><path class="cls-8" d="M113.18,163.86a6.93,6.93,0,0,1-6.29-2.49,4.87,4.87,0,0,1,.54-6.41,17.45,17.45,0,0,1-3.76-32.3c-.64-6.27,1.79-13,7-16.59s13.18-2.93,17,2c-3.34,3.6-2.24,9.31-.93,14a10.63,10.63,0,0,0-4.91,5.8c-4.59-1.71-10,.78-12.65,4.92-3.83,6.06-1.56,15.11,4.67,18.66a2.69,2.69,0,0,1,1.34,1.16,2.08,2.08,0,0,1,.07,1.08c-.19,1.45-.79,2.89-.59,4.34.23,1.62,2.61,2.09,2.56,3.29C117.21,162.82,114.2,163.76,113.18,163.86Z"/><path class="cls-8" d="M264.35,148.08a8.09,8.09,0,0,0,1.65-4.75,4,4,0,0,0-2.88-3.79c2.69-1.57,2.91-5.38,2.24-8.42a14.1,14.1,0,0,0-3.69-7.27,7.42,7.42,0,0,0-7.62-1.8,13,13,0,0,0-22.59-9.67,14,14,0,0,0-24.55,1.94c6-.69,11.91,5.08,11.34,11.11a7.84,7.84,0,0,1,10.86,2.14c4.82-3,11.1-4.2,16.16-1.66s7.81,9.59,4.59,14.24a8.53,8.53,0,0,1,4.69,7.08c.17,3.42-5,7.23-.74,7.63C257.79,155.23,262.32,151.06,264.35,148.08Z"/><path class="cls-6" d="M248.14,154c2.43,2.18,6.63,1.54,8.69-1a8.38,8.38,0,0,0,.49-9.19c-1-1.87-2.53-3.33-4.63-2.91,3-1.3,3.72-5.18,3.72-8.44a21.3,21.3,0,0,0-.51-5,13.59,13.59,0,0,0-11.86-10,13.75,13.75,0,0,0-13.18,8.34,8.11,8.11,0,0,0-4.71-6.34c-2.67-1.17-6.52-.26-7.27,2.56.61-7.07-4.95-14-11.93-15.3s-14.48,3.09-17.14,9.66a17.91,17.91,0,0,0,4.89,19.59,5.16,5.16,0,0,0-4.83,0c-3.85,1.68-6.22,5.9-6.36,10.1a17.72,17.72,0,0,0,4.34,11.52c1.44,1.77,3.32,3.42,5.6,3.6-2.13-3.85-1.73-9.58.65-13.27a12.52,12.52,0,0,1,11.26-5.56,13.36,13.36,0,0,1-3.49-10.93c.69-3.9,3.86-7.4,7.78-7.91s8.14,2.52,8.39,6.47c1.53-2.18,3.86-4.23,6.51-4a5.55,5.55,0,0,1,5.06,5.21c1.1-2.09,3.34-2.79,5.66-3.23a11.27,11.27,0,0,1,12.42,7.25c.64,1.91.67,4.21-.63,5.75,2.24-.48,4.22,1.71,4.89,3.9a7.94,7.94,0,0,1-.16,5.44C251.05,151.93,250,153.73,248.14,154Z"/><path class="cls-6" d="M174.75,135.42a8,8,0,0,0,5.68-6.42,9.89,9.89,0,0,0-2.75-8.31c-2.91-3-8.41-3.9-11.17-.73,3.47-4.22,1.66-11.31-3-14.15s-11.06-1.75-15.27,1.74a13.8,13.8,0,0,0-4.95,8,6.88,6.88,0,0,0-10.61-7.12c-.16.11-.33.26-.3.45s.15.12.18-.07c.8-4.26-3.77-8.27-8.06-7.7s-7.53,4.72-8,9,1.39,8.59,4.07,12c-5.36-2.77-12.41-1.06-16.54,3.35s-5.43,11-4.16,16.92a17,17,0,0,0,4.62,8.76,11.37,11.37,0,0,0,9.15,3.25c-.09-.38-.94,0-1.15.3a5,5,0,0,0,3.42,7.68c1.43.21,3.15-.48,3.43-1.9A5.32,5.32,0,0,1,116,156.4a4.5,4.5,0,0,1,2.17-4.27,11.94,11.94,0,0,1-.18-20.59c3.1-1.85,7.43-2.07,10.13.34-1.16-1.84-1.14-5-.47-7a7.64,7.64,0,0,1,4.33-4.64,10.77,10.77,0,0,1,3.9-.66,10,10,0,0,1,4.9,1,5.24,5.24,0,0,1,2.84,3.93,6.08,6.08,0,0,1,2.73-4.58,11,11,0,0,1,5.51-1.5c2.74-.09,5.69.63,7.51,2.69s1.94,5.69-.25,7.35c2.17-1.46,5.23-.2,6.93,1.79,2.18,2.58,2.76,6.8.43,9.25,1.63,1.26,3.05,2.63,5,2.09a6.81,6.81,0,0,0,4.44-4,2.44,2.44,0,0,0,0-2.17C175.59,134.78,175.07,134.75,174.75,135.42Z"/><path class="cls-9" d="M284.74,88.72c3.73,3.14,7.76,6.16,12.48,7.38s10.3.25,13.38-3.53,2.28-10.48-2.17-12.46c8.47-3.8,12.62-14.49,10.26-23.46S308.48,40.75,299.61,38c-7.56-2.34-16.75-1.56-22.07,4.31,2.22-5.53-1.42-12.14-6.77-14.76s-11.75-2-17.42-.19c-6.17,2-11.64,5.88-13.29,12.15a10.39,10.39,0,0,0-2.79-10.91,14.17,14.17,0,0,0-11-3.49,22.71,22.71,0,0,0-10.94,4.41c-1.43,1-2.54,2.43-1.86,4.06,1.08-6.89-2.93-14.06-9-17.45s-13.82-3.2-20.14-.27A13.33,13.33,0,0,0,178.86,20a6.79,6.79,0,0,0-.91,6.52A14.34,14.34,0,0,0,159.6,31.2a14.35,14.35,0,0,0,3.49,18.61c5.68,4.16,14.5,3.45,19.89-1.08a5.23,5.23,0,0,0-3.88,4.82c0,2.55,1.81,4.77,3.93,6.17s4.57,2.26,6.7,3.65a16.92,16.92,0,0,0-26.64,5.83c-.87,2-1.34,4.29-.36,6.19-.32-5.12-4.38-9.93-9.47-10.58s-10.51,3.84-10.8,9a8.89,8.89,0,0,0-9.22-6.36,11.36,11.36,0,0,0-3.69,1.12,16.51,16.51,0,0,0-2.69,28.16c-2.21-4.43,0-10.65,4-13.6a11,11,0,0,1,13.65.8A5.91,5.91,0,0,1,146,78.37a8.73,8.73,0,0,1,5.24-2.6c4.19-.62,8.94,1.59,10.24,5.62a7.23,7.23,0,0,1,4.47-2.58,4.69,4.69,0,0,1,4.8,1.77c-.54-2.13,1.31-4.39,2.79-6a17,17,0,0,1,5.44-3.64c4.88-2.31,10.33-4.1,15.61-3-2.72-2.78-4.43-6.77-3.66-10.58s4.45-7.05,8.3-6.55a3.43,3.43,0,0,1-1.28-2.85,6.6,6.6,0,0,1,.85-3.11,10.31,10.31,0,0,1,8.88-5.71c3.71,0,7.34,2.9,7.73,6.58-1.13-3,.88-6.41,3.67-8s6.24-1.66,9.41-1.05c4.26.82,8.67,3.14,10.05,7.25,2.06-4.42,6.86-7.46,11.67-8.27A15.38,15.38,0,0,1,263.52,40a11.16,11.16,0,0,1,3.11,5.7,7.41,7.41,0,0,1-1.57,6.18,20.61,20.61,0,0,1,13.13-2.52A17.38,17.38,0,0,1,290,56.49a22.76,22.76,0,0,1,3.25,8.7c.8,4.24.92,8.79-.9,12.71s-6,7-10.26,6.42A9.71,9.71,0,0,0,284.74,88.72Z"/><path class="cls-10" d="M225.61,110.61a6.47,6.47,0,0,1-.09-3.49,3,3,0,0,1,2.49-2.2,2,2,0,0,1,2.11,2.2,5.5,5.5,0,0,1,3.44-3.83,4.36,4.36,0,0,1,4.81,1.45,3.62,3.62,0,0,1-.63,4.81c.68-1.1,2.58-.8,3.21.33a3.3,3.3,0,0,1-.62,3.6,11.1,11.1,0,0,1-3.15,2.25c-1.91,1.1-5.14,4.61-7.3,3.41S226.15,112.81,225.61,110.61Z"/><path class="cls-9" d="M275.44,164.64A17.2,17.2,0,0,0,296.1,145.5a11.89,11.89,0,0,0-3-6.77,7.38,7.38,0,0,0-6.86-2.2,12.8,12.8,0,0,0,10.66-9.93,14,14,0,0,0-5.41-13.71,15.4,15.4,0,0,0-14.8-1.58c-.44.19-1,.56-.82,1,.55-1.8,1.06-3.88,2.6-5,7-4.93,17.25-5,24.09.16s9.45,15.43,5.5,23c-1.26,2.43-3.33,4.68-6,5.12a7.66,7.66,0,0,1,4.86,7.23,5,5,0,0,1-1.38,3.49,3,3,0,0,1-3.53.51c3.67,4.68,2.56,12-1.12,16.66s-9.77,7-15.72,7.22c-3.56.12-7.3-.52-10.11-2.71a3.16,3.16,0,0,1-1.29-1.73C273.56,165.66,274.71,164.7,275.44,164.64Z"/><path class="cls-5" d="M311.26,134.12c2.5.7,4.22,3.07,5,5.55a12.36,12.36,0,0,1,.45,4.84,8.11,8.11,0,0,1-2.13,5,4.84,4.84,0,0,1-5.05,1.23c-.1,3-.13,6.26,1.84,8.49s5.39,3.31,8.08,2,3.89-5.22,2-7.48c3.47,1,7.3-.13,10.28-2.2a13.36,13.36,0,0,0,5.6-7.67,8.6,8.6,0,0,0-2.83-8.74c-2.59-1.94-6.77-1.65-8.69,1,1.76-.94,2.19-3.45,1.32-5.23a7.85,7.85,0,0,0-4.57-3.59,10.16,10.16,0,0,0-8.11.16C311.9,128.71,310.34,131.49,311.26,134.12Z"/><path class="cls-6" d="M112.79,163.91a16.42,16.42,0,0,1-8.87-3.79A11.44,11.44,0,0,1,101,149.75a11,11,0,0,1-8.28-20.13c-4.53-1.13-7.45-6.07-7.18-10.73s3.16-8.86,6.85-11.71,8.16-5.78,12.61-4.39c-2.67-2.25-3.26-6.37-2-9.63a14.77,14.77,0,0,1,7.19-7.33,13.92,13.92,0,0,1,3.17-1.24,10,10,0,0,1,7.07,1c.41-2-.52-5.34-2.1-6.63a17,17,0,0,0-27.61,10.5,10.45,10.45,0,0,0,.35,5.21,5.85,5.85,0,0,0,3.58,3.62,13.48,13.48,0,0,0-11.71-4,13.76,13.76,0,0,0-10.09,7.37,7.75,7.75,0,0,0-.7,5.94c.69,1.93,2.83,3.41,4.8,2.86a9.41,9.41,0,0,0-5.17,6.15,12.65,12.65,0,0,0,.69,8.13A10.91,10.91,0,0,0,76.79,130a7,7,0,0,0,6.61.36c-5.87,2.25-9.23,8.94-8.23,15.14a16.25,16.25,0,0,0,12.35,12.76c3.21.73,7.1.25,8.94-2.47a11.13,11.13,0,0,0-.32,3.73c0,2.26.58,4.69,2.32,6.13s4.85,1.25,5.83-.79a5.19,5.19,0,0,0,2.84,4.8,8.44,8.44,0,0,0,3.58,1c9.43.75,9.87-8.94,9.87-8.94S116.21,164.42,112.79,163.91Z"/><path class="cls-9" d="M185.08,106.89A16.19,16.19,0,0,1,197.26,90.4a11.53,11.53,0,0,1,3.09-.38,8.58,8.58,0,0,1,7,4.12c3.37-5.8,10.95-8.07,17.16-5.51,2.44,1,4.73,2.94,5.22,5.54,6-4.11,14.66-3,20.41,1.49,2.63,2.06,4.89,5.24,4.26,8.53,2.84-4.32,8.89-5.33,13.82-3.76,2.53.8,4.78,3.21,6.29,5.38a8.69,8.69,0,0,1,1.28,7.57,15.14,15.14,0,0,0,6.08-7.45c1.73-5-1.32-10.72-5.73-13.71a13,13,0,0,0-7.41-2.43,8.29,8.29,0,0,0-6.76,3.51,10.94,10.94,0,0,0-21-3.53c-.71-2.75-3.93-3.66-6.06-3.5a6.08,6.08,0,0,0-5,3.51c1.58-4.41-1.74-9-5.67-11.51-4.82-3.13-10.71-4.9-16.37-3.91S196.92,79.44,195.46,85a7.83,7.83,0,0,0-7.22,1.11,16,16,0,0,0-4.73,5.15c-2.32,4.63-2.8,10.82-.66,15.53.42.92,1.22,1.89,2.22,1.73A1.4,1.4,0,0,0,185.08,106.89Z"/><path class="cls-5" d="M334.5,121a3.56,3.56,0,0,0,1-4.49,8.72,8.72,0,0,0,5.08-4,5.16,5.16,0,0,0-.9-6.1c-1.67-1.44-4.75-1-5.6,1a6.19,6.19,0,0,0,1.64-5.77,3.93,3.93,0,0,0-1-1.88c-1.22-1.18-3.24-1-4.78-.29-4.19,2-5.71,12.89-9.73,12.58C315.26,111.67,329.29,125.2,334.5,121Z"/><path class="cls-6" d="M333,87.83a5.47,5.47,0,0,0,.11-2.63,2.28,2.28,0,0,0-1.81-1.72c-1.42-.14-2.36,1.38-2.87,2.71-.67,1.73-.75,9.47-.75,9.47S332.51,89.84,333,87.83Z"/><path class="cls-7" d="M149.26,29.16a5.93,5.93,0,0,0-1.58-2.43,3,3,0,0,0-2.73-.68,3.19,3.19,0,0,0-2,3.12,7.91,7.91,0,0,0,1.26,3.75,5.74,5.74,0,0,0-2.77-1,2,2,0,0,0-2.1,1.69,2,2,0,0,0,1.09,1.66,6.68,6.68,0,0,0,2,.63c1.45.33,6.44,1.11,7.72,2.74C151.27,40.08,149.81,30.63,149.26,29.16Z"/><path class="cls-6" d="M249.27,22.86a11.71,11.71,0,0,0,2.23-3.27,4.89,4.89,0,0,0,.06-3.86,3.12,3.12,0,0,0-3.2-1.84,2.32,2.32,0,0,0-1.8,3,6.36,6.36,0,0,0-.29-4.38,3.38,3.38,0,0,0-1-1.36,2.85,2.85,0,0,0-3.62.54,4.66,4.66,0,0,0-1,3.76,13.62,13.62,0,0,0,1.28,3.78c.61,1.36,3.44,3.71,3.22,7C245,27.82,248.29,24,249.27,22.86Z"/><path class="cls-11" d="M67.3,140.29a3.34,3.34,0,0,1-3-.47,2.74,2.74,0,0,1-.12-3.47,6.6,6.6,0,0,1,3.06-2.13c-1.32-.29-2.85-.82-3.23-2.12a2.57,2.57,0,0,1,1.11-2.67,5,5,0,0,1,2.94-.72c2.35,0,11.32,3.53,8.48,4.63C71.8,135.16,69.7,139.71,67.3,140.29Z"/><path class="cls-7" d="M72.9,147.89a2.29,2.29,0,0,1-2,1.37,2.14,2.14,0,0,1-1.79-1.45c-.8-2.13,2.23-4.17,3.58-7.85C73.83,136.88,73.74,146.24,72.9,147.89Z"/><path class="cls-6" d="M108,62.79c-.35-1.72.81-3.78,2.57-3.84s2.81,1.47,3.55,2.91,2.85,5.57,0,6C111.85,68.29,108.38,64.74,108,62.79Z"/><path class="cls-6" d="M225.42,174.37a9.25,9.25,0,0,1-.12,4.19c-.48,1.33-1.89,2.45-3.25,2.07a2.71,2.71,0,0,1-1.74-1.85,5.93,5.93,0,0,1-.11-2.62c.29-2.16,1.38-5.55,3.63-6.48C226.92,168.4,225.19,172.28,225.42,174.37Z"/><path class="cls-7" d="M187.55,170.82a32.68,32.68,0,0,0-2.75,3.9c-.69,1.43-.83,3.31.24,4.49a2.79,2.79,0,0,0,4.65-2.92c1.36,1,3.15,2,4.62,1.2a3.06,3.06,0,0,0,1.21-3.34,8.91,8.91,0,0,0-1.84-3.3c-.65-.86-2.55-4.42-3.86-4.23C189.06,166.72,188.05,170.08,187.55,170.82Z"/><path class="cls-6" d="M210.41,241.52a31.93,31.93,0,0,0,1.41,4.38,4.1,4.1,0,0,0,1.53,2.12,2.87,2.87,0,0,0,3.09-.45,7.48,7.48,0,0,0,1.88-2.68,90.71,90.71,0,0,0,4.38-11.61c.41-1.28.83-2.55,1.13-3.86s.5-2.81.71-4.22c.35-2.26.78-4.51,1.21-6.76-.36,6.38-.55,12.89-2.38,19a57.25,57.25,0,0,1-2.08,5.66,21.11,21.11,0,0,1-4.08,6.89,8.81,8.81,0,0,1-3.72,2.35,2.3,2.3,0,0,1-1.27.09,2.48,2.48,0,0,1-1.32-1.16A10.16,10.16,0,0,1,210.41,241.52Z"/><path class="cls-5" d="M151.12,332.71s35.26,2,31.14-29.9-28.59-43.33-15-69.27c0,0-37.45,3-38.21,41.46-.82,41.53,16.75,49.23,16.75,49.23l4.12,10.18"/><path class="cls-5" d="M110.23,304.18c0,6.41-3.5,11.59-7.82,11.59s-7.82-5.18-7.82-11.59,3.5-11.59,7.82-11.59S110.23,297.78,110.23,304.18Z"/><path class="cls-11" d="M110.8,298.86c0,2.52-4,1.21-8.66,1.21S94,301.38,94,298.86s3.76-7.62,8.39-7.62S110.8,296.35,110.8,298.86Z"/><path class="cls-12" d="M117.89,285.28s1.64,14,13.1,23.46c5.8,4.78,9.88,9.76,10.63,17.64.82,8.46-4.23,17.64-13.54,18.31,0,0-27.65,1.58-27.74,0s.82-4.49,6-4.58a34.82,34.82,0,0,1,6.37.19s-9.12-3.14-8.28-14.74a10.93,10.93,0,0,1,8.37-10.22c-2.46-10.28,3-26.24,3-26.24l-5.25-3.18"/><path class="cls-7" d="M114.51,281.28l-2.82,23.55c-1.6,13.32-6.19,24.64,3.73,33,12.5,10.56,29.82-1.09,26.91-12.37S126,286.93,126,286.93Z"/><path class="cls-7" d="M121.23,253.92s-2-6.86-1.26-12.51-3.65-1.43-5.26,7c-1,5.3-3.28,7.65-3.28,7.65Z"/><path class="cls-7" d="M127.85,255s4-5.92,5-11.54,3.92-.25,2.89,8.31c-.65,5.35.8,8.28.8,8.28Z"/><path class="cls-10" d="M134.51,285.28s1.64,14,13.09,23.46c5.81,4.78,9.89,9.76,10.64,17.64.82,8.46-4.23,17.64-13.55,18.31,0,0-27.64,1.58-27.73,0s.82-4.49,6-4.58a34.82,34.82,0,0,1,6.37.19s-9.12-3.14-8.28-14.74a10.93,10.93,0,0,1,8.37-10.22c-2.46-10.28-8-27.33-8-27.33l5.73-2.09"/><path class="cls-11" d="M143.74,280.63c-7,16.37-23,13.78-25.34,13.32-2.35-.26-18.36-2.65-20.09-20.38a11,11,0,0,0,6.13-7.13c1.31-5.21,8.52-16.87,20-11.39,12.61-1.74,15.94,11.56,15.61,16.93A11,11,0,0,0,143.74,280.63Z"/><path class="cls-10" d="M105.5,305A14.87,14.87,0,0,0,117,299.92c5.09-5.64,7.11-11.62,13.29-7.08s3.35,16-6.56,18.79-20.1-1.34-22-4.25.88-5.49,2-4.58C105.38,304.12,105.5,305,105.5,305Z"/><path class="cls-7" d="M143.74,280.63c-7,16.37-23,13.78-25.34,13.32-2.35-.26-18.36-2.65-20.09-20.38,0,0,8.4,6.64,14.56,3.68s8.61-3.07,8.61-3.07,2.3.83,7.26,5.53S143.74,280.63,143.74,280.63Z"/><path class="cls-5" d="M120.93,276.68s-2.43-2.67-1.42-3.28,3.79-.07,3.89.72S121.84,276.83,120.93,276.68Z"/><path class="cls-5" d="M114.76,268.27a2,2,0,1,1-1.7-2.33A2,2,0,0,1,114.76,268.27Z"/><path class="cls-13" d="M121.74,280.88c-.17.46-.35,1.21-.42,1.3-.25.28-1.08,0-1.08,0s-.81-.2-1-.29a3.89,3.89,0,0,1-.17-1.27,8.63,8.63,0,0,0,2-3.78s0,0,0,0C121,277.46,120.73,279.46,121.74,280.88Z"/><path class="cls-11" d="M125.48,282.31a2.22,2.22,0,0,1-2.11.22,3.36,3.36,0,0,1-1.68-1.43,7.26,7.26,0,0,1-.62-4.27h0l0-.15v.15h0a14.92,14.92,0,0,0,.2,2.13,6,6,0,0,0,.66,2,3.2,3.2,0,0,0,1.5,1.36A2.27,2.27,0,0,0,125.48,282.31Z"/><path class="cls-11" d="M115.19,280.71a2.3,2.3,0,0,0,2,.62,3.05,3.05,0,0,0,1.85-.89,6.34,6.34,0,0,0,1.24-1.74,17.16,17.16,0,0,0,.84-2,9.18,9.18,0,0,1-.64,2.11,5.91,5.91,0,0,1-1.23,1.86,3.17,3.17,0,0,1-2,.91A2.23,2.23,0,0,1,115.19,280.71Z"/><path class="cls-11" d="M103,292s.11-4.28-1.93-4.23,1.06,2,1.2,4.23.73.18.73.18"/><path class="cls-14" d="M114.31,267.77a.54.54,0,0,1-1.07-.17.54.54,0,1,1,1.07.17Z"/><path class="cls-13" d="M121,273.89c0,.12-.16.19-.32.16s-.28-.14-.26-.25.16-.19.32-.16S121,273.77,121,273.89Z"/><path class="cls-5" d="M132,271.66a2,2,0,1,1-1.71-2.33A2,2,0,0,1,132,271.66Z"/><path class="cls-14" d="M131.15,271.15a.54.54,0,1,1-.45-.62A.55.55,0,0,1,131.15,271.15Z"/><path class="cls-15" d="M66,175.26q3.16-3.42,6.65-6.55a12.89,12.89,0,0,1,2.8-2.08.6.6,0,0,1,1,.37c.88,2.95-1.65,6.32-3,8.74a43.4,43.4,0,0,1-6,8.16,3.07,3.07,0,0,1-1.17.89.54.54,0,0,1-.43,0,.63.63,0,0,1-.2-.55c0-2.21-.07-4.41-.11-6.62a4.42,4.42,0,0,1,.3-2.08"/><path class="cls-16" d="M64.79,162.83c-.27-.8-.66-1.69-1.47-1.94-1-.3-1.92.55-2.58,1.33a51.28,51.28,0,0,0-5,7.07,6.06,6.06,0,0,0-1.09,3.27c.07,1.19,1.05,2.23,1.65,3.2,2.2,3.53,3.94,8.13,7.72,10.31L66.55,185C68.66,177.78,67.23,170,64.79,162.83Z"/><path class="cls-15" d="M57.74,178.89c-1.31-1-3-2-4.57-1.56A4.77,4.77,0,0,0,51,178.72a10.7,10.7,0,0,0-2.82,5.49,3.56,3.56,0,0,0,.65,3.23,3.69,3.69,0,0,0,2.35.82,26.56,26.56,0,0,0,6.09-.49l6.36-1,.19-1A25.39,25.39,0,0,0,57.74,178.89Z"/><path class="cls-17" d="M61.08,187.21c-3.4,1.92-6,3.77-5.78,4.14s3.12-.91,6.52-2.83,6-3.77,5.78-4.13S64.47,185.29,61.08,187.21Z"/><path class="cls-9" d="M67.44,183.41a.93.93,0,0,0-.35,1.26.92.92,0,0,0,1.61-.91A.93.93,0,0,0,67.44,183.41Z"/><path class="cls-5" d="M68.25,183.88a11.09,11.09,0,0,1,.63-4.15,8.71,8.71,0,0,1,2.29-3.53,3.61,3.61,0,0,1,4-.45,3.38,3.38,0,0,1,1.43,1.56,1.49,1.49,0,0,1,0,1.06.63.63,0,0,1-.84.46h0a.59.59,0,0,0,.76-.48,1.41,1.41,0,0,0-.06-1,3.26,3.26,0,0,0-1.41-1.46,3.46,3.46,0,0,0-3.87.42A8.51,8.51,0,0,0,69,179.76a11.13,11.13,0,0,0-.7,4.12Z"/><path class="cls-5" d="M68.47,184.2a11.77,11.77,0,0,1,.75-3,10.42,10.42,0,0,1,1.47-2.7,4.57,4.57,0,0,1,1.14-1.05,2.08,2.08,0,0,1,1.52-.31,1.47,1.47,0,0,1,1.08,1.08.91.91,0,0,1-.14.77.56.56,0,0,1-.71.18v0a.49.49,0,0,0,.63-.21.77.77,0,0,0,.1-.69,1.31,1.31,0,0,0-1-.95,2.85,2.85,0,0,0-2.53,1.28,10.63,10.63,0,0,0-1.49,2.65,12,12,0,0,0-.82,2.94Z"/><path class="cls-18" d="M66.37,183.4a35.39,35.39,0,0,0,.4-12.65c-.12-1.05-.27-2.1-.44-3.14a9.49,9.49,0,0,0-.8-3,2.56,2.56,0,0,0-1-1.06,1.92,1.92,0,0,0-1.4-.1,9.94,9.94,0,0,0-2.77,1.41,18.29,18.29,0,0,0-2.44,2,17.84,17.84,0,0,0-2.1,2.34,4.55,4.55,0,0,0-.69,1.35,4.82,4.82,0,0,0,0,1.52,14.46,14.46,0,0,0,.65,3.07,17.39,17.39,0,0,0,3.18,5.43c1.35,1.64,2.85,3.14,4.33,4.67-1.53-1.48-3.08-2.93-4.49-4.54a17.23,17.23,0,0,1-3.33-5.45,13.5,13.5,0,0,1-.72-3.14,5.39,5.39,0,0,1,0-1.65A4.4,4.4,0,0,1,55.5,169a16.4,16.4,0,0,1,2.13-2.42,19,19,0,0,1,2.5-2A10.11,10.11,0,0,1,63,163a2.39,2.39,0,0,1,1.7.14,3,3,0,0,1,1.15,1.23,9.81,9.81,0,0,1,.83,3.14c.17,1,.3,2.11.4,3.17A33.21,33.21,0,0,1,66.37,183.4Z"/><path class="cls-18" d="M58.93,180.7a5.83,5.83,0,0,0-2.72-1.91,3.85,3.85,0,0,0-3.16.42A5.93,5.93,0,0,0,51,181.7a13.61,13.61,0,0,0-1,3.21c-.11.55-.19,1.11-.27,1.68a2.67,2.67,0,0,0,.09,1.57A1.51,1.51,0,0,0,51,189a7.94,7.94,0,0,0,1.68-.1c2.25-.32,4.46-.9,6.68-1.43-2.2.6-4.38,1.28-6.65,1.67a8.2,8.2,0,0,1-1.73.13,1.87,1.87,0,0,1-1.53-.92,2.91,2.91,0,0,1-.17-1.78c.07-.57.15-1.14.25-1.71a12.54,12.54,0,0,1,1-3.31,6.29,6.29,0,0,1,2.29-2.64,4,4,0,0,1,3.43-.32A5.6,5.6,0,0,1,58.93,180.7Z"/><path class="cls-18" d="M73.8,174.38a18.85,18.85,0,0,0,1.43-4.19,12.86,12.86,0,0,0,.4-2.15c0-.35,0-.75-.19-.86s-.53,0-.82.22a25.53,25.53,0,0,0-3.27,2.93c-1.08,1-2.16,2-3.28,3,1-1.12,2-2.2,3-3.27.51-.55,1-1.07,1.56-1.6A9.58,9.58,0,0,1,74.4,167a2.5,2.5,0,0,1,.55-.25.88.88,0,0,1,.72.06.89.89,0,0,1,.33.62,3.13,3.13,0,0,1,0,.6,10.07,10.07,0,0,1-.47,2.22A14.42,14.42,0,0,1,73.8,174.38Z"/><path class="cls-5" d="M290.4,208.92c-1.49-1.6-3-3.14-4.68-4.6a9,9,0,0,0-2-1.46.54.54,0,0,0-.53-.06.48.48,0,0,0-.19.32c-.62,2.07,1.16,4.44,2.14,6.14a30.66,30.66,0,0,0,4.18,5.74,2.19,2.19,0,0,0,.83.62.39.39,0,0,0,.3,0c.12-.07.14-.24.14-.39,0-1.55.05-3.1.08-4.65a3.16,3.16,0,0,0-.22-1.46"/><path class="cls-19" d="M291.22,200.19c.19-.57.47-1.2,1-1.37s1.34.39,1.81.94a36,36,0,0,1,3.52,5,4.21,4.21,0,0,1,.76,2.29,5.27,5.27,0,0,1-1.16,2.25c-1.54,2.49-2.77,5.72-5.42,7.26l-1.78-.75C288.5,210.69,289.5,205.2,291.22,200.19Z"/><path class="cls-10" d="M296.18,211.47a3.89,3.89,0,0,1,3.21-1.09,3.36,3.36,0,0,1,1.52,1,7.47,7.47,0,0,1,2,3.86,2.49,2.49,0,0,1-.46,2.27,2.56,2.56,0,0,1-1.65.57,18.7,18.7,0,0,1-4.28-.34L292,217l-.13-.7A17.88,17.88,0,0,1,296.18,211.47Z"/><path class="cls-17" d="M293.83,217.33c2.39,1.35,4.21,2.65,4.06,2.9s-2.19-.63-4.58-2-4.2-2.65-4.06-2.91S291.45,216,293.83,217.33Z"/><path class="cls-17" d="M289.36,214.65a.65.65,0,1,1-.64,1.14.65.65,0,0,1-.25-.89A.67.67,0,0,1,289.36,214.65Z"/><path class="cls-19" d="M288.78,215a7.54,7.54,0,0,0-.49-2.9,5.89,5.89,0,0,0-1.61-2.43,2.43,2.43,0,0,0-2.72-.29,2.32,2.32,0,0,0-1,1,1,1,0,0,0,0,.7.41.41,0,0,0,.53.33v0a.44.44,0,0,1-.59-.33,1.08,1.08,0,0,1,0-.75,2.45,2.45,0,0,1,1-1.1,2.54,2.54,0,0,1,2.83.33,6,6,0,0,1,1.61,2.48,7.83,7.83,0,0,1,.44,2.92Z"/><path class="cls-20" d="M288.63,215.21a8.71,8.71,0,0,0-.57-2.07,7.56,7.56,0,0,0-1.05-1.86,2,2,0,0,0-1.78-.9.92.92,0,0,0-.71.67c-.12.31.15.78.52.63h0a.39.39,0,0,1-.5-.12.65.65,0,0,1-.1-.54,1,1,0,0,1,.75-.77,2.1,2.1,0,0,1,1.88,1,7.6,7.6,0,0,1,1,1.9,8.33,8.33,0,0,1,.53,2.09Z"/><path class="cls-18" d="M290.11,214.65a23.1,23.1,0,0,1-.5-8.92c.07-.74.17-1.49.28-2.23a7.22,7.22,0,0,1,.57-2.2,2.16,2.16,0,0,1,.81-.86,1.64,1.64,0,0,1,1.19-.1,7.07,7.07,0,0,1,2,1,13.85,13.85,0,0,1,3.25,3.14,3.25,3.25,0,0,1,.51,1,3.48,3.48,0,0,1,0,1.16,9.75,9.75,0,0,1-.5,2.2,12.1,12.1,0,0,1-2.33,3.84c-1,1.13-2.08,2.15-3.15,3.19,1-1.08,2.1-2.13,3-3.29a12,12,0,0,0,2.25-3.81,9.34,9.34,0,0,0,.46-2.16,3.19,3.19,0,0,0,0-1.07,3,3,0,0,0-.49-1,13.74,13.74,0,0,0-3.2-3,7.18,7.18,0,0,0-1.95-1,1.4,1.4,0,0,0-1,.06,1.84,1.84,0,0,0-.71.75,7,7,0,0,0-.57,2.11c-.12.74-.22,1.47-.31,2.21A25.35,25.35,0,0,0,290.11,214.65Z"/><path class="cls-18" d="M295.34,212.75a4,4,0,0,1,1.86-1.51,2.83,2.83,0,0,1,2.42.23,5.93,5.93,0,0,1,2.32,4.18c.07.4.12.8.17,1.2a2,2,0,0,1-.12,1.25,1.29,1.29,0,0,1-1.07.65,6.15,6.15,0,0,1-1.22-.09c-1.59-.27-3.13-.75-4.68-1.17,1.56.37,3.12.78,4.7,1a5.27,5.27,0,0,0,1.18.07,1.06,1.06,0,0,0,.88-.57,1.88,1.88,0,0,0,.06-1.11q-.07-.58-.18-1.17c-.31-1.53-.85-3.16-2.18-4a2.66,2.66,0,0,0-2.22-.29A4,4,0,0,0,295.34,212.75Z"/><path class="cls-18" d="M284.89,208.31a10.56,10.56,0,0,1-1.24-2.89,7.85,7.85,0,0,1-.33-1.56,1,1,0,0,1,.25-.86.9.9,0,0,1,.9.13,6.45,6.45,0,0,1,1.22,1l1.09,1.12c.73.76,1.45,1.52,2.14,2.3-.79-.69-1.55-1.41-2.31-2.13a17.68,17.68,0,0,0-2.3-2.06c-.2-.13-.46-.23-.57-.16s-.14.36-.13.61a8.13,8.13,0,0,0,.27,1.51A13.53,13.53,0,0,0,284.89,208.31Z"/><path class="cls-6" d="M252.46,254.23c-.66-.81-2.27-1.27-3.21-1.63a18.1,18.1,0,0,0-7.6-1.24,1.55,1.55,0,0,0-1.3.5,1.61,1.61,0,0,0,.14,1.48c.76,1.73,1.53,3.47,2.41,5.14.67,1.26,1.53,3.39,2.87,4.06,1.15.57,2.41,0,3.37-.7a27.21,27.21,0,0,0,2.68-2.13c.41-.37.81-.76,1.21-1.16.21-.2.71-.57.65-.9-.18-1.13-.7-1.7-.94-2.81A1.38,1.38,0,0,0,252.46,254.23Z"/><path class="cls-6" d="M253.57,257.69c-.94,1-1.86,2.06-2.77,3.11a6.91,6.91,0,0,0-1.37,2.07,2.44,2.44,0,0,0,.29,2.37,2.41,2.41,0,0,0,2.46.58,3.13,3.13,0,0,0,1.64-1.07,4.62,4.62,0,0,0,.54-3.62,14.74,14.74,0,0,1-.5-3.72Z"/><path class="cls-18" d="M250.6,253.37c-1.27-.23-2.53-.47-3.8-.64a20.5,20.5,0,0,0-3.82-.25,2.9,2.9,0,0,0-1.67.65,1.64,1.64,0,0,0-.55,1.58,8.22,8.22,0,0,0,.68,1.75c.28.57.58,1.14.89,1.7.61,1.12,1.28,2.21,2,3.28a3.18,3.18,0,0,0,1.3,1.25,2.77,2.77,0,0,0,1.78,0,6.42,6.42,0,0,0,3-2.18c.83-1,1.54-2.06,2.41-3-.83,1-1.47,2.11-2.26,3.13A6.68,6.68,0,0,1,247.5,263a3,3,0,0,1-2,0,3.5,3.5,0,0,1-1.46-1.36c-.74-1.07-1.43-2.16-2.06-3.29-.3-.57-.6-1.15-.87-1.73a8.53,8.53,0,0,1-.7-1.85,2,2,0,0,1,.67-1.89,3,3,0,0,1,1.88-.69A30.73,30.73,0,0,1,250.6,253.37Z"/><path class="cls-18" d="M252.83,258.46l-1.27,1.76a8.21,8.21,0,0,0-1.14,1.81,3.19,3.19,0,0,0,.88,3.68,1.71,1.71,0,0,0,1.82-.29,3.12,3.12,0,0,0,1-1.74,11.56,11.56,0,0,0-.12-4.26,9.89,9.89,0,0,1,.41,4.33,3.27,3.27,0,0,1-1.1,1.95,2.1,2.1,0,0,1-2.24.35,3.14,3.14,0,0,1-1.19-1.93,3,3,0,0,1,.23-2.22,7.8,7.8,0,0,1,1.26-1.79Z"/><path class="cls-6" d="M253.26,253.94c0-1.05,1-2.44,1.44-3.32a18.42,18.42,0,0,1,5.07-5.86,1.56,1.56,0,0,1,1.31-.45c.49.16.7.73.84,1.23.5,1.83,1,3.66,1.39,5.51.28,1.4,1,3.6.35,5-.52,1.17-1.88,1.53-3,1.63a25.85,25.85,0,0,1-3.41.08c-.55,0-1.11-.06-1.66-.11-.29,0-.91,0-1.08-.27-.57-1-.53-1.76-1-2.77A1.37,1.37,0,0,1,253.26,253.94Z"/><path class="cls-6" d="M254.6,257.31c1.36.19,2.73.39,4.09.62a6.93,6.93,0,0,1,2.37.71,2.16,2.16,0,0,1-.26,4,3.06,3.06,0,0,1-1.93.23,4.56,4.56,0,0,1-2.71-2.43,15,15,0,0,0-2-3.19Z"/><path class="cls-18" d="M254.15,252.08a31.69,31.69,0,0,1,5.1-5.82,3.1,3.1,0,0,1,1.88-.69,2,2,0,0,1,1.74,1,8.28,8.28,0,0,1,.64,1.87c.16.62.29,1.26.42,1.89.23,1.28.39,2.56.5,3.85a3.81,3.81,0,0,1-.24,2,3,3,0,0,1-1.52,1.31,6.48,6.48,0,0,1-3.87.2c-1.27-.27-2.48-.72-3.75-.95,1.28.17,2.52.56,3.78.77a6.28,6.28,0,0,0,3.72-.3,2.72,2.72,0,0,0,1.33-1.19,3.29,3.29,0,0,0,.19-1.8c-.12-1.27-.29-2.55-.53-3.81-.11-.63-.24-1.25-.4-1.87a7.82,7.82,0,0,0-.58-1.79,1.6,1.6,0,0,0-1.44-.84,2.83,2.83,0,0,0-1.69.6,20.3,20.3,0,0,0-2.77,2.64C255.79,250.09,255,251.09,254.15,252.08Z"/><path class="cls-18" d="M255.65,257.43l2.14.36a8.36,8.36,0,0,1,2.11.57,3,3,0,0,1,1.58,1.57,3.13,3.13,0,0,1,.29,2.24,2.1,2.1,0,0,1-1.93,1.17,3.2,3.2,0,0,1-2.09-.79,9.94,9.94,0,0,1-2.43-3.6,11.58,11.58,0,0,0,2.61,3.36,3.06,3.06,0,0,0,1.9.67,1.74,1.74,0,0,0,1.58-1,3.17,3.17,0,0,0-1.64-3.4,8.11,8.11,0,0,0-2-.66Z"/><path class="cls-12" d="M254.43,255.7c.56,1.55.61,2.95.11,3.13s-1.34-.93-1.89-2.48-.61-3-.11-3.14S253.88,254.15,254.43,255.7Z"/><path class="cls-10" d="M253.61,257.43c.93,2.61,2.24,6.95,2.84,6.74s-1.14-4.41-2.07-7-1.09-2.51-1.31-2.43S252.68,254.83,253.61,257.43Z"/><path class="cls-5" d="M253.11,253a.59.59,0,0,1-.36.76.59.59,0,0,1-.76-.36.61.61,0,0,1,.36-.77A.6.6,0,0,1,253.11,253Z"/><path class="cls-6" d="M252.24,253.05a8.53,8.53,0,0,0-2-2,13,13,0,0,0-2.53-1.33v0a5.82,5.82,0,0,1,2.61,1.22,7.87,7.87,0,0,1,1.93,2.14Z"/><path class="cls-6" d="M252.58,252.94c-.12-.43-.2-.87-.36-1.28a6.59,6.59,0,0,0-.61-1.18c-.5-.73-1-1.44-1.54-2.18v0a9,9,0,0,1,1.66,2.12,6.43,6.43,0,0,1,.57,1.22c.14.43.19.89.29,1.32Z"/><path class="cls-21" d="M378.35,37.42a3.56,3.56,0,0,1,6.11,2.63,5.41,5.41,0,0,0-2.58-2.23A5.78,5.78,0,0,0,378.35,37.42Z"/><path class="cls-7" d="M391.67,46.53a4.82,4.82,0,0,0-5-4.36,6.34,6.34,0,0,0-12-3.17l0,0a4.5,4.5,0,0,0-.22.44,6.75,6.75,0,0,0-8.26,3.87,4,4,0,0,0-.5,0,3.6,3.6,0,0,0-3.29,3.85,3.64,3.64,0,0,0,3.84,3.29,2.75,2.75,0,0,0,1-.2A6.83,6.83,0,0,0,369.39,52a6.72,6.72,0,0,0,3.58.7l1.69-.36a6.7,6.7,0,0,0,1.86-1,5.38,5.38,0,0,0,7.27-.91,5.42,5.42,0,0,0,3.53,1.24C389.9,51.61,391.86,49,391.67,46.53Z"/><path class="cls-22" d="M378.84,48.19a2.76,2.76,0,0,1-5.16-.11,4.24,4.24,0,0,0,2.51.85A4.55,4.55,0,0,0,378.84,48.19Z"/><path class="cls-22" d="M387.49,49.86a4.75,4.75,0,0,1-4.25-2.72,4.74,4.74,0,0,1-4.34,3A4.58,4.58,0,0,1,376,49.05,4.63,4.63,0,0,1,367.74,48a4.61,4.61,0,0,1-5.38-1.25,3.23,3.23,0,0,0,0,.44,3.64,3.64,0,0,0,3.84,3.29,2.75,2.75,0,0,0,1-.2A6.83,6.83,0,0,0,369.39,52a6.72,6.72,0,0,0,3.58.7l1.69-.36a6.7,6.7,0,0,0,1.86-1,5.38,5.38,0,0,0,7.27-.91,5.42,5.42,0,0,0,3.53,1.24,4.71,4.71,0,0,0,4.34-4.31A4.76,4.76,0,0,1,387.49,49.86Z"/><path class="cls-5" d="M336.62,72q-1.77-1.92-3.72-3.68a7.68,7.68,0,0,0-1.57-1.16.45.45,0,0,0-.43,0,.49.49,0,0,0-.15.26c-.49,1.65.92,3.54,1.71,4.9a24.53,24.53,0,0,0,3.33,4.57,1.9,1.9,0,0,0,.66.5.33.33,0,0,0,.24,0c.1-.06.11-.2.11-.31l.06-3.71a2.56,2.56,0,0,0-.16-1.17"/><path class="cls-19" d="M337.28,65c.16-.45.38-1,.83-1.09s1.07.31,1.44.75a28.7,28.7,0,0,1,2.81,4,3.48,3.48,0,0,1,.61,1.83,4.22,4.22,0,0,1-.93,1.79c-1.23,2-2.21,4.56-4.32,5.79l-1.42-.6C335.12,73.39,335.91,69,337.28,65Z"/><path class="cls-10" d="M341.24,74a3.12,3.12,0,0,1,2.56-.88,2.69,2.69,0,0,1,1.21.79A6,6,0,0,1,346.59,77a1.65,1.65,0,0,1-1.68,2.27,15.14,15.14,0,0,1-3.42-.27l-3.56-.56-.11-.56A14.33,14.33,0,0,1,341.24,74Z"/><path class="cls-17" d="M339.37,78.68c1.9,1.07,3.35,2.11,3.23,2.31s-1.75-.5-3.65-1.58-3.35-2.11-3.24-2.32S337.46,77.6,339.37,78.68Z"/><path class="cls-17" d="M335.8,76.54a.52.52,0,0,1-.51.91.52.52,0,1,1,.51-.91Z"/><path class="cls-19" d="M335.34,76.81A6.24,6.24,0,0,0,335,74.5a4.83,4.83,0,0,0-1.29-1.94,2,2,0,0,0-2.16-.23,1.84,1.84,0,0,0-.8.81.8.8,0,0,0,0,.57.33.33,0,0,0,.43.26h0c-.19.1-.41-.07-.46-.26a.75.75,0,0,1,0-.59,1.88,1.88,0,0,1,.79-.88,2,2,0,0,1,2.26.25,4.88,4.88,0,0,1,1.28,2,6.18,6.18,0,0,1,.36,2.33Z"/><path class="cls-20" d="M335.22,77a6.74,6.74,0,0,0-.46-1.65,5.67,5.67,0,0,0-.84-1.48,1.55,1.55,0,0,0-1.42-.72.74.74,0,0,0-.56.53c-.11.25.12.63.41.51h0c-.31.16-.57-.25-.47-.53a.81.81,0,0,1,.6-.61,1.67,1.67,0,0,1,1.49.77,5.82,5.82,0,0,1,.82,1.51,6.5,6.5,0,0,1,.42,1.67Z"/><path class="cls-18" d="M336.4,76.54a18.3,18.3,0,0,1-.4-7.11c.06-.59.13-1.18.22-1.77a5.8,5.8,0,0,1,.46-1.76,1.7,1.7,0,0,1,.64-.69,1.31,1.31,0,0,1,.95-.08,5.78,5.78,0,0,1,1.63.81,11.18,11.18,0,0,1,2.59,2.5,2.68,2.68,0,0,1,.41.83,2.85,2.85,0,0,1,0,.92,8.14,8.14,0,0,1-.39,1.76c-.82,2.31-2.68,4-4.38,5.6,1.64-1.7,3.44-3.39,4.22-5.65a7.85,7.85,0,0,0,.37-1.73,2.68,2.68,0,0,0,0-.85,2.39,2.39,0,0,0-.39-.76,10.85,10.85,0,0,0-2.55-2.42,6.13,6.13,0,0,0-1.55-.79,1.12,1.12,0,0,0-.79.05,1.5,1.5,0,0,0-.57.6,5.49,5.49,0,0,0-.45,1.68c-.1.59-.18,1.18-.25,1.77A20.35,20.35,0,0,0,336.4,76.54Z"/><path class="cls-18" d="M340.57,75a3.07,3.07,0,0,1,1.48-1.2A2.28,2.28,0,0,1,344,74a4.63,4.63,0,0,1,1.85,3.32c.05.32.1.64.13,1a1.7,1.7,0,0,1-.09,1,1,1,0,0,1-.85.51,4.48,4.48,0,0,1-1-.07,36.11,36.11,0,0,1-3.72-.93c1.24.3,2.48.62,3.74.81.6.08,1.36.18,1.65-.4a1.41,1.41,0,0,0,.05-.89c0-.31-.09-.63-.15-.94a4.83,4.83,0,0,0-1.74-3.2A2.12,2.12,0,0,0,342.1,74,3.24,3.24,0,0,0,340.57,75Z"/><path class="cls-18" d="M332.24,71.48a8,8,0,0,1-1-2.3,5.16,5.16,0,0,1-.26-1.24.79.79,0,0,1,.2-.69.72.72,0,0,1,.71.11,13.18,13.18,0,0,1,1.85,1.72c.57.6,1.14,1.22,1.7,1.84-.63-.56-1.24-1.13-1.84-1.7a14.13,14.13,0,0,0-1.84-1.65c-.16-.1-.36-.18-.45-.12s-.12.29-.11.48a6.32,6.32,0,0,0,.22,1.2A10.38,10.38,0,0,0,332.24,71.48Z"/><path class="cls-21" d="M338.35,13.09A5.63,5.63,0,0,1,348,17.26a8.54,8.54,0,0,0-4.09-3.54A9.1,9.1,0,0,0,338.35,13.09Z"/><path class="cls-7" d="M362.32,17.51c-.33-4.26-3.9-6.84-7.93-6.89a10,10,0,0,0-19-5,.16.16,0,0,1,0,.07c-.14.26-.25.48-.35.7a10.65,10.65,0,0,0-13.06,6.13,7.16,7.16,0,0,0-.8-.05c-3.09,0-5.44,3.18-5.22,6.08.25,3.25,3,5.22,6.09,5.22a4.57,4.57,0,0,0,1.65-.32,10.76,10.76,0,0,0,9.07,3.78l2.67-.56A10.69,10.69,0,0,0,338.33,25a8.5,8.5,0,0,0,11.51-1.44,8.55,8.55,0,0,0,5.58,2C359.51,25.56,362.61,21.34,362.32,17.51Z"/><path class="cls-22" d="M342,20.14a4.37,4.37,0,0,1-8.16-.18,6.6,6.6,0,0,0,4,1.35A7,7,0,0,0,342,20.14Z"/><path class="cls-22" d="M355.69,22.78a7.51,7.51,0,0,1-6.72-4.3,7.51,7.51,0,0,1-6.88,4.69,7.35,7.35,0,0,1-4.62-1.66,7.34,7.34,0,0,1-13.05-1.71,7.2,7.2,0,0,1-2.93.63,7.37,7.37,0,0,1-5.59-2.61,5.45,5.45,0,0,0,0,.7c.25,3.25,3,5.22,6.09,5.22a4.57,4.57,0,0,0,1.65-.32,10.76,10.76,0,0,0,9.07,3.78l2.67-.56A10.69,10.69,0,0,0,338.33,25a8.5,8.5,0,0,0,11.51-1.44,8.55,8.55,0,0,0,5.58,2c3.66,0,6.51-3.37,6.87-6.82A7.51,7.51,0,0,1,355.69,22.78Z"/><path class="cls-7" d="M49.4,25.33C49.06,20.8,45.25,18.05,41,18a10.68,10.68,0,0,0-20.23-5.34.43.43,0,0,0,0,.07,7.38,7.38,0,0,0-.37.75A11.34,11.34,0,0,0,6.41,20a7.91,7.91,0,0,0-.85-.06c-3.28,0-5.78,3.4-5.54,6.48C.28,29.87,3.21,32,6.49,32a4.71,4.71,0,0,0,1.76-.34,11.06,11.06,0,0,0,3.61,2.84,11.26,11.26,0,0,0,6,1.18l2.83-.59a11.1,11.1,0,0,0,3.14-1.71,9.07,9.07,0,0,0,12.26-1.53,9.14,9.14,0,0,0,5.93,2.09C46.41,33.9,49.71,29.41,49.4,25.33Z"/><path class="cls-22" d="M27.78,28.13a4.64,4.64,0,0,1-8.68-.19,7,7,0,0,0,4.22,1.44A7.56,7.56,0,0,0,27.78,28.13Z"/><path class="cls-22" d="M42.35,31a8,8,0,0,1-7.15-4.58,8,8,0,0,1-7.32,5A7.8,7.8,0,0,1,23,29.59,7.81,7.81,0,0,1,9.08,27.77,7.63,7.63,0,0,1,6,28.44,7.82,7.82,0,0,1,0,25.66a4.7,4.7,0,0,0,0,.75C.28,29.87,3.21,32,6.49,32a4.71,4.71,0,0,0,1.76-.34,11.06,11.06,0,0,0,3.61,2.84,11.26,11.26,0,0,0,6,1.18l2.83-.59a11.1,11.1,0,0,0,3.14-1.71,9.07,9.07,0,0,0,12.26-1.53,9.14,9.14,0,0,0,5.93,2.09c3.89,0,6.93-3.59,7.31-7.26A8,8,0,0,1,42.35,31Z"/><path class="cls-7" d="M81.84,51.13c-.26-3.36-3.07-5.39-6.24-5.43a8,8,0,0,0-1.34-4.88,7.9,7.9,0,0,0-13.63.93l0,0c-.11.21-.2.38-.28.55A8.41,8.41,0,0,0,50,47.17a6.26,6.26,0,0,0-.63,0c-2.43,0-4.28,2.51-4.1,4.8A4.53,4.53,0,0,0,50.09,56a3.54,3.54,0,0,0,1.3-.25,8.51,8.51,0,0,0,7.14,3l2.1-.44A8.42,8.42,0,0,0,63,57.05,6.71,6.71,0,0,0,72,55.92a6.72,6.72,0,0,0,4.39,1.55C79.63,57.47,82.07,54.15,81.84,51.13Z"/><path class="cls-22" d="M65.84,53.2a3.44,3.44,0,0,1-6.42-.14,5.18,5.18,0,0,0,3.12,1.06A5.53,5.53,0,0,0,65.84,53.2Z"/><path class="cls-22" d="M76.63,55.28a5.92,5.92,0,0,1-5.3-3.39,5.89,5.89,0,0,1-5.41,3.69,5.78,5.78,0,0,1-3.64-1.3A5.77,5.77,0,0,1,52,52.93a5.65,5.65,0,0,1-2.32.5,5.8,5.8,0,0,1-4.39-2.06,3.49,3.49,0,0,0,0,.56A4.53,4.53,0,0,0,50.09,56a3.54,3.54,0,0,0,1.3-.25,8.51,8.51,0,0,0,7.14,3l2.1-.44A8.42,8.42,0,0,0,63,57.05,6.71,6.71,0,0,0,72,55.92a6.72,6.72,0,0,0,4.39,1.55c2.88,0,5.13-2.66,5.41-5.38A5.92,5.92,0,0,1,76.63,55.28Z"/></g></g></g></svg>