<svg xmlns="http://www.w3.org/2000/svg" xmlns:xlink="http://www.w3.org/1999/xlink"   viewBox="0 0 1920 200" preserveAspectRatio="none" >
<defs>

    <style>
    .a{
        fill:url(#a);
        
    }
    </style>
    <linearGradient id="a" y1="0.817" x2="1.116" y2="0.747" gradientUnits="objectBoundingBox">
        <stop offset="0%" stop-color="#1175E2"/>
        <stop offset="100%" stop-color="#0045B7"/>
    </linearGradient>
    </defs>
<path class="a" d="M2412,314.734H491.5V53.083c16.16-1.618,33-2.437,50.044-2.437,47.669,0,100.2,6.169,165.3,19.413,29.357,5.972,61.955,13.52,99.658,23.076,32.318,8.191,69.06,18.02,115.628,30.931,16.568,4.594,33.011,8.631,48.874,12,15.367,3.264,30.646,6,45.411,8.127,14.259,2.055,28.469,3.607,42.234,4.613,13.246.967,26.482,1.458,39.343,1.458,11.965,0,23.973-.424,35.69-1.261,11.175-.8,22.448-2,33.5-3.562a504.6,504.6,0,0,0,61.515-12.716c17.65-4.772,35.952-10.653,55.953-17.978,18.53-6.786,36.821-14.2,52.51-20.61q4.011-1.64,8.009-3.278l.012,0c16.081-6.587,32.71-13.4,49.147-19.613,18.391-6.955,34.782-12.484,50.11-16.9a425.566,425.566,0,0,1,52.935-11.856c9.342-1.454,18.8-2.565,28.112-3.3,9.751-.774,19.683-1.166,29.521-1.166a396.841,396.841,0,0,1,43.453,2.437,457.751,457.751,0,0,1,47.193,7.822c16.654,3.641,34,8.342,51.55,13.973,18.191,5.836,37.209,12.865,56.525,20.89,21.487,8.928,42.651,17.343,62.9,25.012,19.91,7.54,39.52,14.578,58.285,20.918,18.424,6.226,36.582,11.965,53.969,17.058,17.046,4.993,33.855,9.512,49.958,13.431,15.763,3.836,31.324,7.214,46.252,10.039,14.578,2.759,28.995,5.074,42.849,6.881,13.5,1.76,26.871,3.092,39.75,3.957,12.517.841,24.951,1.267,36.956,1.267,13.609,0,27.146-.548,40.236-1.628,12.533-1.034,25.082-2.593,37.3-4.631a458.823,458.823,0,0,0,67.765-16.757c10.317-3.374,20.606-7.092,31.455-11.368,9.751-3.843,19.727-8.048,30.5-12.855,19.8-8.836,38.927-18.206,60.094-28.657-.919.92-.009,206.852,0,208.932Z" transform="translate(-491.5 -38.01)"/>
</svg>