<svg xmlns="http://www.w3.org/2000/svg" xmlns:xlink="http://www.w3.org/1999/xlink" width="26" height="26" viewBox="0 0 26 26"><defs><style>.a{fill:none;}.b{clip-path:url(#a);}.c{fill:#fff;fill-rule:evenodd;}</style><clipPath id="a"><rect class="a" width="26" height="26"/></clipPath></defs><g class="b"><path class="c" d="M13,2.311a39.859,39.859,0,0,1,5.2.144,6.7,6.7,0,0,1,2.455.433A5.073,5.073,0,0,1,23.11,5.344,6.7,6.7,0,0,1,23.543,7.8c0,1.3.144,1.733.144,5.2a39.858,39.858,0,0,1-.144,5.2,6.7,6.7,0,0,1-.433,2.455,5.073,5.073,0,0,1-2.455,2.455,6.7,6.7,0,0,1-2.455.433c-1.3,0-1.733.144-5.2.144a39.858,39.858,0,0,1-5.2-.144,6.7,6.7,0,0,1-2.455-.433,5.073,5.073,0,0,1-2.455-2.455A6.7,6.7,0,0,1,2.455,18.2c0-1.3-.144-1.733-.144-5.2a39.858,39.858,0,0,1,.144-5.2,6.7,6.7,0,0,1,.433-2.455A5.187,5.187,0,0,1,3.9,3.9,2.442,2.442,0,0,1,5.344,2.889,6.7,6.7,0,0,1,7.8,2.455,39.858,39.858,0,0,1,13,2.311M13,0A42.677,42.677,0,0,0,7.655.144,8.917,8.917,0,0,0,4.478.722,5.654,5.654,0,0,0,2.167,2.167,5.654,5.654,0,0,0,.722,4.478,6.581,6.581,0,0,0,.144,7.655,42.677,42.677,0,0,0,0,13a42.677,42.677,0,0,0,.144,5.344,8.917,8.917,0,0,0,.578,3.178,5.654,5.654,0,0,0,1.444,2.311,5.654,5.654,0,0,0,2.311,1.444,8.917,8.917,0,0,0,3.178.578A42.677,42.677,0,0,0,13,26a42.677,42.677,0,0,0,5.344-.144,8.917,8.917,0,0,0,3.178-.578,6.06,6.06,0,0,0,3.755-3.755,8.917,8.917,0,0,0,.578-3.178C25.854,16.9,26,16.466,26,13a42.677,42.677,0,0,0-.144-5.344,8.917,8.917,0,0,0-.578-3.178,5.654,5.654,0,0,0-1.444-2.311A5.654,5.654,0,0,0,21.521.722,8.917,8.917,0,0,0,18.343.144,42.677,42.677,0,0,0,13,0m0,6.355A6.537,6.537,0,0,0,6.355,13,6.644,6.644,0,1,0,13,6.355m0,10.977A4.256,4.256,0,0,1,8.666,13,4.256,4.256,0,0,1,13,8.666,4.256,4.256,0,0,1,17.332,13,4.256,4.256,0,0,1,13,17.332M19.932,4.478a1.589,1.589,0,1,0,1.589,1.589,1.6,1.6,0,0,0-1.589-1.589"/></g></svg>