<svg xmlns="http://www.w3.org/2000/svg" xmlns:xlink="http://www.w3.org/1999/xlink" ><defs><style>.cls-1{fill:url(#linear-gradient);}.cls-2{fill:url(#linear-gradient-2);}.cls-3{fill:url(#linear-gradient-3);}.cls-4{fill:url(#linear-gradient-4);}.cls-5{fill:url(#linear-gradient-5);}.cls-6{fill:url(#linear-gradient-6);}.cls-7{fill:url(#linear-gradient-7);}.cls-8{fill:url(#linear-gradient-8);}.cls-9{fill:url(#linear-gradient-9);}.cls-10{fill:url(#linear-gradient-10);}.cls-11{fill:url(#linear-gradient-11);}.cls-12{fill:url(#linear-gradient-12);}.cls-13{fill:url(#linear-gradient-13);}.cls-14{fill:url(#linear-gradient-14);}</style><linearGradient id="linear-gradient" x1="2.91" y1="74.87" x2="116.19" y2="74.87" gradientUnits="userSpaceOnUse"><stop offset="0" stop-color="#f54d01"/><stop offset="1" stop-color="#ff3400"/></linearGradient><linearGradient id="linear-gradient-2" x1="64.18" y1="83.07" x2="71.59" y2="83.07" xlink:href="#linear-gradient"/><linearGradient id="linear-gradient-3" x1="79.06" y1="63.9" x2="85.22" y2="63.9" xlink:href="#linear-gradient"/><linearGradient id="linear-gradient-4" x1="91.57" y1="46.26" x2="97.85" y2="46.26" xlink:href="#linear-gradient"/><linearGradient id="linear-gradient-5" x1="55.3" y1="38.52" x2="58.18" y2="38.52" xlink:href="#linear-gradient"/><linearGradient id="linear-gradient-6" x1="40.17" y1="35.83" x2="42.42" y2="35.83" xlink:href="#linear-gradient"/><linearGradient id="linear-gradient-7" x1="20.58" y1="38.09" x2="25.86" y2="38.09" xlink:href="#linear-gradient"/><linearGradient id="linear-gradient-8" x1="7.52" y1="44.98" x2="13.01" y2="44.98" xlink:href="#linear-gradient"/><linearGradient id="linear-gradient-9" x1="0" y1="61.45" x2="5.78" y2="61.45" xlink:href="#linear-gradient"/><linearGradient id="linear-gradient-10" x1="2.71" y1="80.57" x2="10.31" y2="80.57" xlink:href="#linear-gradient"/><linearGradient id="linear-gradient-11" x1="38.32" y1="128.4" x2="44.16" y2="128.4" xlink:href="#linear-gradient"/><linearGradient id="linear-gradient-12" x1="82.28" y1="136.66" x2="88.14" y2="136.66" xlink:href="#linear-gradient"/><linearGradient id="linear-gradient-13" x1="102.21" y1="108.25" x2="111.24" y2="108.25" xlink:href="#linear-gradient"/><linearGradient id="linear-gradient-14" x1="104.68" y1="75.82" x2="112.17" y2="75.82" xlink:href="#linear-gradient"/></defs><g id="Layer_2" data-name="Layer 2"><g id="Layer_1-2" data-name="Layer 1"><path class="cls-1" d="M65.19,4.21a15.65,15.65,0,0,0-8,11c-1,5.53.89,12.15,4.82,16.85,3,3.59,6.57,5.44,10.1,5.23s6.6-2.33,9-6a9.25,9.25,0,0,0-.19-10.74c-2.06-2.84-5.35-4.33-8-3.63a6.47,6.47,0,0,0-4.6,4.24,8.78,8.78,0,0,0,1.34,7.93,5,5,0,0,0,3.51,2.06,5.14,5.14,0,0,1-3,.48c-1.48-.23-3.48-1.26-4.67-4.84-1.26-3.8-1-7.71.84-10.44a9.12,9.12,0,0,1,7.1-4,11.6,11.6,0,0,1,9.1,2.86c3,2.74,4.72,7.22,4.76,12.63.07,11-9.71,17.07-17.93,20.29a31.31,31.31,0,0,0-7.2,3.9c1.86-3,3.44-6.4,2.92-8.63a3,3,0,0,0-1.79-2.17C59.67,39.67,55.63,44,52.83,48c.65-3.07,1-6.54-.12-8.67a4,4,0,0,0-2.52-2c-4.55-1.15-8.1,5.83-9.93,10.52-.45-3.39-1.47-8-3.83-10.06a4.41,4.41,0,0,0-3.5-1.15,4,4,0,0,0-3,1.79c-1.74,2.52-1.48,7.32-.94,10.95-2.7-3.95-6.88-8.84-10.18-7.09a2.78,2.78,0,0,0-1.42,1.91c-.63,2.73,1.87,7.57,4,11.07-3.05-2-7.25-4.21-10.47-3.74a4.84,4.84,0,0,0-3.48,2.21A4.13,4.13,0,0,0,7,57.44c.94,2.59,4.43,4.84,7.71,6.44-3.45-.2-7.37,0-9.69,1.7a4.83,4.83,0,0,0-2.08,3.53,3.53,3.53,0,0,0,.39,2.08,4.16,4.16,0,0,0,.63.87c3.1,3.36,13,3.64,16.18,3.64l-.09,0A3.17,3.17,0,0,0,18.09,78a5.42,5.42,0,0,0,.65,3.41,5.44,5.44,0,0,0-3-.3,3.25,3.25,0,0,0-2.18,1.81c-1.08,2.22-.09,4.31,1.07,5.78a6.2,6.2,0,0,0-3.71.7,3.73,3.73,0,0,0-1.68,2.82c-.36,3.07,2.09,4.77,4.24,5.65a6.22,6.22,0,0,0-2.41,1.77,4.15,4.15,0,0,0-.81,3.22,3.61,3.61,0,0,0,.37,1.15,3.07,3.07,0,0,0,1.18,1.22c1.46.88,3.66.71,5.4.36a4.66,4.66,0,0,0-.62,2.35,4.41,4.41,0,0,0,2.11,3.45,4.61,4.61,0,0,0,3.88.88,5.44,5.44,0,0,0,2-1,5.84,5.84,0,0,0,.36,2.61,4.17,4.17,0,0,0,2.6,2.38,4.36,4.36,0,0,0,3.67-.19A6.92,6.92,0,0,0,34,112.57c3.12,4.12,8.3,7.92,13.82,8.68a13.21,13.21,0,0,0,1.46.13,20.53,20.53,0,0,0,1.65,14,18.42,18.42,0,0,0,2.63,3.75c7.18,8,18.76,10.51,19.25,10.61a.85.85,0,0,0,.89-.37c4.84-7.36,7.7-16.88,8.48-19.72,11.87,2.59,24.87-6.47,25.43-6.87a.85.85,0,0,0,.3-1c-3-7.44-9-12.33-11.83-14.31,14.3-5.38,16.43-21.62,16.45-21.78a.86.86,0,0,0-.38-.82c-5.91-3.89-10.69-4.79-13.23-5,2.76-3.26,5.73-6.91,8.79-10.93,14-18.43,9.23-44.63-4.06-57.55C91.08-.81,78.14-3.22,65.19,4.21ZM51.05,121.36a15.73,15.73,0,0,0,3.33-.62,22.76,22.76,0,0,0,2,12.76c0,.11.11.22.17.33,3.56,6.71,12.85,10.23,13.25,10.38a.86.86,0,0,0,1-.36c6.7-11.34,7.85-17.77,7.74-21A16,16,0,0,0,81,124.39c5.73,3.1,18.32-2.56,18.85-2.8a.85.85,0,0,0,.45-1.06,22.8,22.8,0,0,0-13.67-14,25.74,25.74,0,0,0,9.35-4.37c10.4-7.24,11.82-13.63,11.87-13.9a.85.85,0,0,0-.58-1c-3.76-1.15-9.32-2.92-11.43-3.72.55-.63,1.12-1.28,1.69-2,1.31,0,6.45,0,13.27,4.4-.5,2.84-3.61,16.48-16.84,20.4a.86.86,0,0,0-.61.72.84.84,0,0,0,.42.84c.08,0,8.49,5,12.34,13.82-2.68,1.74-14.29,8.7-24.27,6a.83.83,0,0,0-.65.09.89.89,0,0,0-.4.53c0,.11-2.87,11.23-8.14,19.51-2.4-.61-11.84-3.36-17.77-9.94S50.6,123.05,51.05,121.36ZM79.12,100.2c-.31,2.61-1.44,8.51-5.5,11.64-2.45,1.89-5.65,2.48-9.49,1.78a14.4,14.4,0,0,0,3.16-7,.89.89,0,0,0,.36.07C70.77,106.28,75.74,102.82,79.12,100.2ZM59,118.46a28.8,28.8,0,0,0,.36,8.33,9.29,9.29,0,0,0,.94,2.72c2.35,4.43,7.67,5.64,7.94,5.7a.87.87,0,0,0,.94-.44c6-11.5,2.75-18,1.66-19.65.33-.09.65-.22,1-.34A30.74,30.74,0,0,0,76.56,121c.35,1,1.71,6.63-6.84,21.32-2.19-.94-9.19-4.21-11.83-9.6a21.48,21.48,0,0,1-1.68-12.69A17.4,17.4,0,0,0,59,118.46Zm19.95-11q.23-.49.42-1c.92.05,14.05,1,19,13.89-2.72,1.13-12.33,4.85-16.61,2.54a17.26,17.26,0,0,1-3.91-3l0,0a29.88,29.88,0,0,1-4.42-5.79,13.27,13.27,0,0,0,1.3-.86l.34-.3c.9,1.18,4,5,7.18,6.52,3.94,1.91,9.88-1.45,10.13-1.59a.86.86,0,0,0,.28-1.23C86.68,108,81.22,107.3,79,107.45Zm-.6,1.8c.09,0,5.7-1.47,12.27,7.52-1.64.78-5.3,2.25-7.68,1.1-3-1.44-6.06-5.34-6.69-6.17A15.14,15.14,0,0,0,78,109.28.93.93,0,0,0,78.36,109.25ZM61,117.07a.76.76,0,0,0,0-.15c.62-.54,1.23-1.14,1.85-1.8a17.63,17.63,0,0,0,6.13.38c1,.85,4.52,6.88-1,17.86-1.66-.53-6.13-2.37-6.93-6.87C60,120.61,61,117.1,61,117.07ZM80.94,99a.32.32,0,0,0,0-.17c1-.85,1.72-1.44,1.82-1.53s2.69-2.5,6.82-6.88a.76.76,0,0,0,.21.08c2.28.37,4.78.83,6.22,1.16-1.62,1.89-5.29,5.91-8,7a16,16,0,0,1-7.09.86A4.8,4.8,0,0,0,80.94,99Zm10-10c1.14-1.23,2.36-2.57,3.67-4,1.94.82,8.79,3,11.3,3.74-.69,1.8-3.17,6.72-11,12.13-8.62,6-13.2,4.27-14.71,3.72l-.18-.06a24.44,24.44,0,0,0,.67-3.21,17.67,17.67,0,0,0,7.91-1c4-1.59,9.3-8.24,9.52-8.52a.85.85,0,0,0-.3-1.31A55.56,55.56,0,0,0,90.92,88.91ZM33.36,108.24c-1.42-3.3-1.41-6.44,0-9.06,1.62-3,4.9-5,9.24-5.68,3-.49,5.39.06,7,1.66A8.9,8.9,0,0,1,52,102.35a6.16,6.16,0,0,1-3.95,4.52,6,6,0,0,1-6.19-1.31,4.78,4.78,0,0,1-1.74-3.39c-.05-3,2.94-6.36,3-6.38h0a4.53,4.53,0,0,1,3.12,2.39,4.06,4.06,0,0,1,.1,4.45,1.44,1.44,0,0,1-1.53.58c-.75-.3-.84-.65-.87-.77a2.43,2.43,0,0,1,.52-1.72.85.85,0,0,0-1.37-1,4.12,4.12,0,0,0-.79,3.21,2.91,2.91,0,0,0,1.89,1.9,3.09,3.09,0,0,0,3.47-1,5.81,5.81,0,0,0-4.26-9.05c-2.43,0-4.87,1.86-6.85,5.27a8.92,8.92,0,0,0-.26,8.5l.24.47c1.58,3,4.58,5.39,7.31,5.84a14,14,0,0,0,10.41-2.75c3-2.39,4.73-5.94,5.06-10.56.51-7-2.3-10.78-4.68-12.71.29-.23.64-.52,1.06-.89,2,1.64,9.07,8,10,15.3a12.22,12.22,0,0,1-2.91,9.43c-4.33,5.35-9.27,7.67-14.67,6.92C40.83,118.56,35.11,112.34,33.36,108.24Zm72-69.74A44.1,44.1,0,0,1,105.08,50c-.67.28-12,4.82-18.9-4.74a.46.46,0,0,1-.07-.07l.08-.07a20.27,20.27,0,0,0,4.52-5.92C96.38,43.62,102.69,40.31,105.34,38.5Zm-.85-5c.24,1,.43,2.08.59,3.13-1.68,1.33-8.09,5.72-13.65,1a16.91,16.91,0,0,0,.62-1.77A11.94,11.94,0,0,0,104.49,33.46Zm-1-3.46c.17.51.33,1,.48,1.56a10.19,10.19,0,0,1-11.55,2.59c.09-.47.17-.94.22-1.41C98.49,33.84,102,31.48,103.51,30Zm-6.88-5.08a8.94,8.94,0,0,0,3.1-2.71c.36.55.72,1.07,1.08,1.67a31.12,31.12,0,0,1,2.06,4.31c-.73.89-3.84,4.07-10,2.85a26.84,26.84,0,0,0-.29-5.39,6.88,6.88,0,0,0,3-.28,2.7,2.7,0,1,0,1.06-.45ZM98,27.1a1,1,0,1,1-1.34-.41A1,1,0,0,1,98,27.1Zm6.74,24.81c-.18.88-.39,1.73-.63,2.57-1.22.48-13.7,5-21.42-6.34.7-.59,1.42-1.2,2.15-1.84C91.31,55.26,101.51,52.94,104.74,51.91Zm-1.26,4.57a26.87,26.87,0,0,1-1.9,4.25c-.23,0-16.21,1.75-22.78-9.49.84-.64,1.7-1.31,2.57-2C88.54,59.61,99.63,57.59,103.48,56.48Zm-2.94,6,0,0-.35.51c-2,2.91-3.9,5.75-5.72,8.46-2,.11-18.36.5-24.84-14.06A89.52,89.52,0,0,0,77.74,52C83.59,62.21,96.35,62.61,100.54,62.45ZM60.12,62v0ZM93.3,73.18c-1.1,1.63-2.14,3.21-3.11,4.7C88.9,77.71,71.7,75.25,65.3,59.71c.87-.42,1.81-.91,2.83-1.48.23.51.46,1,.71,1.51C75.38,72.05,88.81,73.16,93.3,73.18Zm-4.13,6.27c-1,1.52-1.89,3-2.68,4.24h-.13c-.38,0-19.49.28-24.63-22.34.57-.24,1.26-.54,2-.9.36.88.75,1.73,1.17,2.53C71.69,75.68,85.51,78.83,89.17,79.45Zm-3.68,5.89a30.23,30.23,0,0,0-2.71,5.29,29.7,29.7,0,0,1-2.28,2.45A27.32,27.32,0,0,1,60.18,83c2-2.78,3.58-6.24,3-9.9-.19-1.26-.4-2.6-.67-4,.27.6.55,1.19.85,1.75A26.73,26.73,0,0,0,85.49,85.34Zm-6.77,9.37a32.69,32.69,0,0,1-2.83,2.17s-.06,0-.09,0-8.3.21-12.28-3.07h0A37.78,37.78,0,0,0,57,86.73a31,31,0,0,0,2.15-2.31A28.7,28.7,0,0,0,78.72,94.71ZM51,88.61l.08,0c.3.09,7.3,2.37,6.55,12.74-.3,4.12-1.79,7.26-4.42,9.33a12.29,12.29,0,0,1-9.07,2.41c-2.33-.38-5-2.69-6.28-5.35a7.21,7.21,0,0,1,.18-6.91,14.24,14.24,0,0,1,1.8-2.46,8.15,8.15,0,0,0-1.22,4.12A5.91,5.91,0,0,0,40.81,107a7.52,7.52,0,0,0,7.9,1.56,7.88,7.88,0,0,0,5-6,10.61,10.61,0,0,0-2.85-8.64c-1.42-1.37-4.05-2.84-8.51-2.12-4.87.79-8.59,3.12-10.47,6.55a10.08,10.08,0,0,0-1.07,3c-.67-.08-5.91-.94-5.85-7.51a10.6,10.6,0,0,1,6-9.48,13.78,13.78,0,0,0,8.58,6A14.15,14.15,0,0,0,51,88.61ZM26.72,72.81a4.05,4.05,0,0,0-.43.57c1.08-8,4.79-13,10.86-14.34A15.44,15.44,0,0,1,49.24,61.4a16.7,16.7,0,0,1,7.22,11,15.2,15.2,0,0,1-4.6,13.4,12.49,12.49,0,0,1-11.89,3c-7.38-1.84-10.22-8.24-9.2-13.61a7.76,7.76,0,0,1,2.38-4.49,13.87,13.87,0,0,1,11-3,6.92,6.92,0,0,1,5.19,3.73,9.52,9.52,0,0,1-.63,9.62,6,6,0,0,1-6.1,2.4c-4-.7-5.93-3.15-6.34-5a3.82,3.82,0,0,1,1.64-4.12c1.95-1.34,3.92-1.74,5.27-1a2.36,2.36,0,0,1,1.27,2.15A1.49,1.49,0,0,1,43.14,77a2.68,2.68,0,0,1-3-1.56A.85.85,0,0,0,39,75a.84.84,0,0,0-.45,1.12,4.4,4.4,0,0,0,4.92,2.56,3.2,3.2,0,0,0,2.63-3.31,4,4,0,0,0-2.21-3.63c-1.91-1-4.53-.54-7,1.16a5.54,5.54,0,0,0-2.34,5.9c.69,3.16,3.72,5.66,7.72,6.35a7.7,7.7,0,0,0,7.76-3.07,11.11,11.11,0,0,0,.79-11.4,8.68,8.68,0,0,0-6.38-4.63A15.39,15.39,0,0,0,32,69.38a8.29,8.29,0,0,0-1.89,2.41A4,4,0,0,0,26.72,72.81Zm2.75.63a10.82,10.82,0,0,0-.38,1.41A13,13,0,0,0,29,79a18.16,18.16,0,0,0-1.93.65c-.23-1.57-.35-4.41.85-5.61A2.16,2.16,0,0,1,29.47,73.44ZM73.21,98.5a19.17,19.17,0,0,1-6.37,2.13,20.29,20.29,0,0,0-1.51-3.81A25.39,25.39,0,0,0,73.21,98.5ZM27,108.47a28.51,28.51,0,0,0,5,.93c.1.2.19.41.3.62s.33.53.48.79a1,1,0,0,0,0,.1s-.67,2.73-2.36,3.65a2.69,2.69,0,0,1-2.28.08,2.47,2.47,0,0,1-1.59-1.42C25.91,111.73,26.6,109.49,27,108.47Zm-7.1-3.63a17.16,17.16,0,0,0,5.4,3.08,6.07,6.07,0,0,1-3.17,2.68,2.92,2.92,0,0,1-2.48-.61,2.77,2.77,0,0,1-1.4-2.11A4.66,4.66,0,0,1,19.93,104.84Zm-3.67-6a11.58,11.58,0,0,0,1,2.76,10.44,10.44,0,0,0,1.32,1.91c-1.6.49-4.54,1.13-5.94.29a1.48,1.48,0,0,1-.73-1.14,2.48,2.48,0,0,1,.47-1.93A6.7,6.7,0,0,1,16.26,98.79Zm1.38-3c0-11.08,9-14.43,11.69-15.18a12.39,12.39,0,0,0,.82,2.25,12.47,12.47,0,0,0-6.88,11,10.16,10.16,0,0,0,1.08,4.92,8.62,8.62,0,0,0,6.28,4.3,13,13,0,0,0,.68,4.53C27.66,107.21,17.67,105.24,17.64,95.84Zm-5.83-5c1.26-.8,3.58-.4,4.78-.07a18.76,18.76,0,0,0-.66,5.07c0,.36,0,.7.06,1-1.62-.39-5.41-1.62-5.07-4.47A2,2,0,0,1,11.81,90.84Zm8.5-6.74a15.59,15.59,0,0,0-3.11,4.83C16.14,88,14,85.79,15.08,83.66a1.5,1.5,0,0,1,1-.9C17.37,82.46,19.28,83.44,20.31,84.1Zm.43-6.81a2.4,2.4,0,0,1,2-.08,6.32,6.32,0,0,1,2.67,3.16,18.88,18.88,0,0,0-3.74,2.44c-.8-1-2.18-3.13-1.9-4.46A1.46,1.46,0,0,1,20.74,77.29Zm1.22-2a.31.31,0,0,0,0-.1.87.87,0,0,0,0-.13,1,1,0,0,0,0-.3.85.85,0,0,0-.2-.51,20,20,0,0,1,4.1-15C31.44,51.88,41.6,53.11,45.7,54,58,56.6,60.15,64.32,61.52,73.39c1,6.83-7,13.31-8.36,14.39-.23-.14-.43-.25-.62-.35.16-.13.32-.25.48-.39a17,17,0,0,0,5.13-15,18.4,18.4,0,0,0-8-12.11,17.14,17.14,0,0,0-13.41-2.61c-5.3,1.21-11.75,5.45-12.46,18.8a5.06,5.06,0,0,0-.9-.53A3.92,3.92,0,0,0,22,75.34Zm-1.41-9A19.82,19.82,0,0,0,20,74C15.84,74,7.56,73.45,5.2,70.9a2,2,0,0,1-.57-1.61A3.13,3.13,0,0,1,6,67C9.19,64.69,17,65.65,20.55,66.35Zm3.37-7.21a23.61,23.61,0,0,0-2.85,5.51c-3.55-1.19-11.26-4.4-12.47-7.78a2.41,2.41,0,0,1,.31-2.28,3.11,3.11,0,0,1,2.28-1.45C15,52.59,21.32,57,23.92,59.14Zm5.85-5.33a15.52,15.52,0,0,0-4.7,3.82c-2.28-3.24-6.68-10.28-6-13.13a1.08,1.08,0,0,1,.56-.78C22,42.46,26.89,48.74,29.77,53.81Zm9.1-2.19A21.8,21.8,0,0,0,31.43,53c-.79-3.28-2.08-10.86-.1-13.72a2.35,2.35,0,0,1,1.77-1.07,2.78,2.78,0,0,1,2.2.74C38,41.37,38.78,48.66,38.87,51.62Zm10.64,1.64a31.1,31.1,0,0,0-3.45-.95,32.57,32.57,0,0,0-5.35-.67c1.28-4.09,5.16-13.71,9.06-12.73a2.06,2.06,0,0,1,1.43,1.16C52.74,43.05,50.61,50.28,49.51,53.26Zm6.83,3.88a18.94,18.94,0,0,0-5.18-3.24c2.05-3.79,7.8-12.68,11.37-11.09a1.36,1.36,0,0,1,.83,1C64.07,46.88,58.78,54.16,56.34,57.14ZM66,5.69c12.38-7.1,24.3-4.84,36.42,6.93,12.76,12.4,17.38,37.57,3.89,55.28-3.48,4.57-6.83,8.66-9.89,12.23a.93.93,0,0,0-.13.15A211.56,211.56,0,0,1,81.59,96c-2.67,2.33-10.46,8.53-14.15,9h0a14.85,14.85,0,0,0-.08-2c0-.23-.09-.46-.13-.69,9.56-1.36,16.72-10.35,17-10.74a.88.88,0,0,0,.16-.32c.76-3.13,11-18.25,17.19-27.28l.36-.52c4.53-6.68,6.18-16.81,4.92-26.28a.82.82,0,0,0-.1-.73A37.6,37.6,0,0,0,102.28,23C95.26,11,86.1,8.94,85.72,8.86a.86.86,0,0,0-.89.36.84.84,0,0,0,0,.95c.15.22,14.07,21.11.21,33.67s-25,16.33-25.82,16.61a16.45,16.45,0,0,0-1.37-1.8c.8-1.18,4.38-5.91,12.07-8.91,12.51-4.89,19.08-12.46,19-21.89C88.9,22,87,17,83.62,14a13.4,13.4,0,0,0-10.41-3.29,10.78,10.78,0,0,0-8.37,4.76c-2.1,3.22-2.47,7.56-1,11.92,1.53,4.61,4.43,5.73,6,6a6.86,6.86,0,0,0,6.39-2.51.84.84,0,0,0,.14-.37,5,5,0,0,0,2.74-3.4,5.77,5.77,0,0,0-2.45-5.17,2.89,2.89,0,0,0-3.16-.16,2.56,2.56,0,0,0-1.22,1.64c-.36,1.54.68,3.17,1.12,3.87l.09.14a.87.87,0,0,0,1.16.34A.85.85,0,0,0,75,26.58a1.52,1.52,0,0,0-.16-.26c-.27-.43-1.09-1.73-.9-2.56a.86.86,0,0,1,.45-.57,1.12,1.12,0,0,1,1.33.13,4.1,4.1,0,0,1,1.69,3.51,3.9,3.9,0,0,1-2.87,2.54A3.2,3.2,0,0,1,71,28.09a7,7,0,0,1-1.1-6.35,4.74,4.74,0,0,1,3.42-3.14c2-.52,4.57.73,6.19,3a7.48,7.48,0,0,1,.14,8.81c-2.06,3.19-4.77,5-7.63,5.22S65.91,34.14,63.28,31c-3.61-4.34-5.36-10.41-4.45-15.46A13.84,13.84,0,0,1,66,5.69Zm31.9,14c.25.31.5.62.74,1-.62,1-2.75,4-6.4,3.2h0c-.08-.4-.19-.78-.28-1.17A6.43,6.43,0,0,0,97.94,19.72Zm-2.8-3.15c.53.52,1.07,1.1,1.6,1.7,0,0,0,0,0,0S95.61,21.35,91.54,21c-.22-.77-.46-1.51-.71-2.22A8.83,8.83,0,0,0,95.14,16.57Zm-4.93.5a48.63,48.63,0,0,0-2.72-5.78,25.47,25.47,0,0,1,6.38,4.12A6.27,6.27,0,0,1,90.21,17.07Z"/><path class="cls-2" d="M69.62,86.34a3.7,3.7,0,1,0-5-1.54A3.71,3.71,0,0,0,69.62,86.34Zm-.8-1.51a2,2,0,1,1,.83-2.7A2,2,0,0,1,68.82,84.83Z"/><path class="cls-3" d="M83.61,66.66a3.13,3.13,0,1,0-4.18-1.33A3.1,3.1,0,0,0,83.61,66.66Zm-.8-1.5a1.41,1.41,0,0,1-1.87-.63,1.36,1.36,0,1,1,1.87.63Z"/><path class="cls-4" d="M97.41,44.83a3.08,3.08,0,1,0-1.1,4.45A3.25,3.25,0,0,0,97.41,44.83Zm-1.5.8a1.39,1.39,0,1,1-2.4,1.27,1.39,1.39,0,1,1,2.4-1.27Z"/><path class="cls-5" d="M55.4,41A.85.85,0,0,0,57,40.83l1.17-4.17a.85.85,0,0,0-1.64-.46l-1.18,4.17A.85.85,0,0,0,55.4,41Z"/><path class="cls-6" d="M40.27,39.52A.83.83,0,0,0,41,40a.85.85,0,0,0,.92-.78l.54-6.57a.85.85,0,0,0-1.7-.14l-.54,6.57A.83.83,0,0,0,40.27,39.52Z"/><path class="cls-7" d="M20.68,35.73l0,.06,3.57,5.52a.86.86,0,0,0,1.18.26.88.88,0,0,0,.26-1.19l-3.58-5.51A.86.86,0,0,0,21,34.61.85.85,0,0,0,20.68,35.73Z"/><path class="cls-8" d="M7.62,43.63a1,1,0,0,0,.2.25,48.2,48.2,0,0,1,3.6,3.26.84.84,0,0,0,1.15.34.88.88,0,0,0,.34-1.18,27.16,27.16,0,0,0-4-3.72.85.85,0,0,0-1.2.09A.87.87,0,0,0,7.62,43.63Z"/><path class="cls-9" d="M.1,62a.86.86,0,0,0,.8.45L5,62.19a.85.85,0,1,0-.09-1.7l-4.07.22a.86.86,0,0,0-.81.9A.88.88,0,0,0,.1,62Z"/><path class="cls-10" d="M2.81,81.65a.83.83,0,0,0,.94.43l5.9-1.35a.87.87,0,0,0,.64-1,.88.88,0,0,0-1-.64L3.37,80.42a.84.84,0,0,0-.64,1A.66.66,0,0,0,2.81,81.65Z"/><path class="cls-11" d="M39.88,125.83a2.91,2.91,0,1,1-1.22,3.94A2.9,2.9,0,0,1,39.88,125.83Zm.79,1.51a1.21,1.21,0,1,0,1.64.5A1.21,1.21,0,0,0,40.67,127.34Z"/><path class="cls-12" d="M82.33,134.57s0,0,0,.05L86.24,140a1.12,1.12,0,0,0,1.4.16A.93.93,0,0,0,88,138.9l-3.39-5.61c-.24-.4-1.18-.31-1.59-.06S82.12,134.18,82.33,134.57Z"/><path class="cls-13" d="M102.31,107.53a.86.86,0,0,0,.5.41l7.32,2.24a.85.85,0,1,0,.5-1.63l-7.31-2.24a.85.85,0,0,0-1.07.56A.88.88,0,0,0,102.31,107.53Z"/><path class="cls-14" d="M104.93,77.44c.21.4.31.78.73.58l6.1-2.92a.77.77,0,0,0,.3-1.09,1,1,0,0,0-1.19-.37l-5.93,2.82c-.42.21-.25.53,0,1Z"/></g></g></svg>