<svg xmlns="http://www.w3.org/2000/svg" xmlns:xlink="http://www.w3.org/1999/xlink" width="26" height="26" viewBox="0 0 26 26"><defs><style>.a{fill:none;}.b{clip-path:url(#a);}.c{fill:#fff;fill-rule:evenodd;}</style><clipPath id="a"><rect class="a" width="26" height="26"/></clipPath></defs><g class="b"><rect class="a" width="26" height="26"/><path class="c" d="M46.233,23.088A15.031,15.031,0,0,0,61.4,7.922V7.2A11.741,11.741,0,0,0,64,4.455a11.99,11.99,0,0,1-3.033.867,5.62,5.62,0,0,0,2.311-2.889,13.248,13.248,0,0,1-3.322,1.3A5.158,5.158,0,0,0,56.055,2,5.427,5.427,0,0,0,50.71,7.344,2.816,2.816,0,0,0,50.855,8.5,14.933,14.933,0,0,1,39.878,2.867a5.531,5.531,0,0,0-.722,2.744,5.739,5.739,0,0,0,2.311,4.478,4.869,4.869,0,0,1-2.455-.722h0a5.279,5.279,0,0,0,4.333,5.2,4.453,4.453,0,0,1-1.444.144,2.458,2.458,0,0,1-1.011-.144,5.472,5.472,0,0,0,5.055,3.755A10.905,10.905,0,0,1,39.3,20.632a4,4,0,0,1-1.3-.144,13.633,13.633,0,0,0,8.233,2.6" transform="translate(-38 1.249)"/></g></svg>